<svg width="287" height="287" viewBox="0 0 287 287" fill="none" xmlns="http://www.w3.org/2000/svg">
<circle cx="143.5" cy="143.5" r="143.5" fill="white"/>
<path d="M128.597 89.1941L130.719 93.2141L129.894 105.51L133.312 92.8596L129.776 83.8736L119.402 81.2726L112.448 86.1201L116.221 86.5931L118.46 88.8396L126.24 90.0216L128.597 89.1941Z" fill="#FF7710"/>
<path d="M158.066 83.8736L154.53 92.8596L157.949 105.51L157.124 93.2141L159.245 89.1941L161.603 90.0216L171.622 86.5931L175.394 86.1201L168.439 81.2726L158.066 83.8736Z" fill="#FF7710"/>
<path d="M144.926 131.316L149.146 120.03L153.974 117.991C155.4 117.389 156.353 115.113 156.136 113.576C155.839 111.476 143.922 114.185 143.922 114.185C143.922 114.185 132.734 111.84 132.007 113.382C131.168 115.163 131.998 117.2 133.724 117.929L138.697 120.03L142.917 131.316L130.374 136.859C127.725 136.618 125.218 138.102 124.148 140.546L124.13 140.587L143.922 134.594L163.713 140.587L163.695 140.546C162.626 138.103 160.119 136.618 157.47 136.859L144.927 131.316H144.926Z" fill="#FF7710"/>
<path d="M225.609 96.7612L208.281 70.8677L225.255 85.0557L210.049 57.3887L188.124 45.3287L203.684 47.1022L178.93 32.2052L159.834 31.1407L143.921 40.0506L128.008 31.1407L108.912 32.2052L84.158 47.1032L99.7177 45.3297L77.7924 57.3897L62.5862 85.0557L79.5605 70.8677L62.2327 96.7612L64.3543 131.522L74.9631 117.334L68.244 141.454L80.9743 164.155L88.0468 140.39L86.6321 166.992L98.3021 184.018L99.7168 155.997L108.557 184.018L127.653 197.143L125.885 181.342L143.92 200.873L161.955 181.342L160.186 197.143L179.282 184.018L188.123 155.997L189.538 184.018L201.208 166.992L199.793 140.39L206.865 164.155L219.596 141.454L212.877 117.334L223.485 131.522L225.607 96.7612H225.609ZM174.805 122.418C174.805 122.418 160.895 113.669 161.838 114.378C162.781 115.087 171.504 128.33 171.504 128.33L169.382 145.592L162.31 157.415L150.286 164.509L154.059 154.814L143.922 161.169L133.785 154.814L137.557 164.509L125.534 157.415L118.461 145.592L116.34 128.33C116.34 128.33 125.062 115.088 126.005 114.378C126.948 113.669 113.039 122.418 113.039 122.418L104.316 106.811L105.966 79.6167L117.754 58.3347L143.923 69.6123L170.091 58.3347L181.879 79.6167L183.529 106.811L174.807 122.418H174.805Z" fill="#FF7710"/>
<path d="M99.7177 155.997L108.558 184.018L115.701 188.928L99.7177 155.997Z" fill="#252222"/>
<path d="M88.0477 140.39L86.633 166.992L91.6946 174.377L88.0477 140.39Z" fill="#252222"/>
<path d="M68.244 141.454L74.963 117.334L73.0646 150.05L68.244 141.454Z" fill="#252222"/>
<path d="M62.2327 96.7612L62.7671 105.51L79.5605 70.8677L62.2327 96.7612Z" fill="#252222"/>
<path d="M62.5862 85.0558L77.7924 57.3888L70.1893 78.7009L62.5862 85.0558Z" fill="#252222"/>
<path d="M179.284 184.018L169.348 190.847L188.125 155.997L179.284 184.018Z" fill="#252222"/>
<path d="M197.46 172.462L201.209 166.992L199.795 140.39L197.46 172.462Z" fill="#252222"/>
<path d="M214.14 151.187L219.598 141.454L212.879 117.334L214.14 151.187Z" fill="#252222"/>
<path d="M224.932 107.854L225.609 96.7611L208.281 70.8677L224.932 107.854Z" fill="#252222"/>
<path d="M225.255 85.0558L210.049 57.3888L217.652 78.7009L225.255 85.0558Z" fill="#252222"/>
<path d="M178.93 32.2052L194.339 46.0368L203.684 47.1022L178.93 32.2052Z" fill="#252222"/>
<path d="M84.1581 47.1022L108.912 32.2052L91.6946 46.2437L84.1581 47.1022Z" fill="#252222"/>
<path d="M125.886 181.341L138.221 194.7L143.921 200.873L148.168 196.274L125.886 181.341Z" fill="#252222"/>
<path d="M161.956 181.341L140.04 196.67L143.921 200.873L161.956 181.341Z" fill="#252222"/>
<path d="M106.989 244.317H109.367V252.994H114.758V255.163H106.988V244.318L106.989 244.317Z" fill="#FF7710"/>
<path d="M116.658 244.317H119.037V255.162H116.658V244.317Z" fill="#FF7710"/>
<path d="M121.74 244.317H124.118V249.058L128.474 244.317H131.393L126.975 248.918L131.579 255.162H128.721L125.37 250.545L124.118 251.846V255.162H121.74V244.317Z" fill="#FF7710"/>
<path d="M133.016 244.317H141.171V246.439H135.378V248.64H140.476V250.762H135.378V253.04H141.248V255.162H133.015V244.317H133.016Z" fill="#FF7710"/>
<path d="M143.365 244.317H145.743V252.994H151.134V255.163H143.364V244.318L143.365 244.317Z" fill="#FF7710"/>
<path d="M153.034 244.317H155.413V255.162H153.034V244.317Z" fill="#FF7710"/>
<path d="M157.637 249.77V249.739C157.637 246.656 160.063 244.131 163.399 244.131C166.736 244.131 169.13 246.626 169.13 249.708V249.739C169.13 252.823 166.705 255.347 163.368 255.347C160.032 255.347 157.637 252.853 157.637 249.77ZM166.643 249.77V249.739C166.643 247.88 165.284 246.33 163.368 246.33C161.453 246.33 160.125 247.849 160.125 249.708V249.739C160.125 251.598 161.484 253.148 163.399 253.148C165.315 253.148 166.643 251.629 166.643 249.77Z" fill="#FF7710"/>
<path d="M171.245 244.317H173.439L178.505 250.994V244.317H180.853V255.162H178.829L173.594 248.267V255.162H171.246V244.317H171.245Z" fill="#FF7710"/>
<path d="M80.3977 208.833V214.938L71.0227 216.686L70.6927 218.349H76.1668L74.5936 224.624L69.2893 225.853L68.7896 228.651H68.8646L78.4093 227.073V234.057L58.9149 235.456L65.4633 208.833H80.3977Z" fill="#FF7710"/>
<path d="M86.8983 207.471H94.8127L91.8539 226.798L98.0067 208.672L105.525 208.275L99.4486 233.216L80.0199 235.059L86.8983 207.472V207.471Z" fill="#FF7710"/>
<path d="M117.285 208.964L112.376 228.981L120.611 227.903V234.821L100.23 236.579L109.464 209.379L117.285 208.964V208.964Z" fill="#FF7710"/>
<path d="M138.607 208.7H146.38L139.897 235.861H121.985L124.425 218.387H132.933L131.549 227.337H132.359L138.605 208.7H138.607Z" fill="#FF7710"/>
<path d="M158.12 209.4L151.807 235.144L141.65 235.938L150.601 209.797L158.12 209.4Z" fill="#FF7710"/>
<path d="M173.986 207.471H181.901L178.942 226.798L185.095 208.672L192.614 208.275L186.537 233.216L167.108 235.059L173.986 207.472V207.471Z" fill="#FF7710"/>
<path d="M204.467 208.672L206.54 218.378H206.624L209.744 209.154L217.253 208.833L210.94 234.661L200.867 235.464L199.821 227.837H199.746L198.144 234.576L187.911 235.379L197.023 209.153L204.466 208.671L204.467 208.672Z" fill="#FF7710"/>
<path d="M228.927 209.4L222.614 235.144L212.457 235.938L221.408 209.797L228.927 209.4Z" fill="#FF7710"/>
<path d="M98.1633 251.753C99.2719 251.753 100.171 250.851 100.171 249.739C100.171 248.627 99.2719 247.726 98.1633 247.726C97.0548 247.726 96.1562 248.627 96.1562 249.739C96.1562 250.851 97.0548 251.753 98.1633 251.753Z" fill="#FF7710"/>
<path d="M189.678 251.753C190.787 251.753 191.685 250.851 191.685 249.739C191.685 248.627 190.787 247.726 189.678 247.726C188.57 247.726 187.671 248.627 187.671 249.739C187.671 250.851 188.57 251.753 189.678 251.753Z" fill="#FF7710"/>
</svg>
