<svg width="309" height="21" viewBox="0 0 309 21" fill="none" xmlns="http://www.w3.org/2000/svg">
<path d="M0 21V0H6V9H15V0H21V21H15V12H6V21H0ZM24 21V0H45V3H30V9H42V12H30V18H45V21H24ZM51 21V0H57V18H69V21H51ZM75 21V0H81V18H93V21H75ZM99 21V18H96V3H99V0H114V3H117V18H114V21H99ZM102 18H111V3H102V18ZM144 21V0H165V3H150V9H162V12H150V21H144ZM168 21V0H186V3H189V12H183V15H186V18H189V21H180V18H177V15H174V21H168ZM174 12H180V9H183V3H174V12ZM195 21V18H201V3H195V0H213V3H207V18H213V21H195ZM216 21V0H237V3H222V9H234V12H222V18H237V21H216ZM240 21V0H246V3H249V6H252V9H255V0H261V21H255V15H252V12H249V9H246V21H240ZM264 21V0H279V3H282V6H285V15H282V18H279V21H264ZM270 18H276V15H279V6H276V3H270V18ZM291 21V18H288V15H294V18H303V12H291V9H288V3H291V0H306V3H309V6H303V3H294V9H306V12H309V18H306V21H291Z" fill="white"/>
</svg>
