<svg width="560" height="59" viewBox="0 0 560 59" fill="none" xmlns="http://www.w3.org/2000/svg">
<path d="M39.088 58.576H18.992C9.776 58.576 4.08 53.968 4.08 46.608C4.08 39.248 9.776 34.64 18.992 34.64H39.088C48.304 34.64 54 39.248 54 46.608C54 53.968 48.304 58.576 39.088 58.576ZM0.56 32.08V25.104C8.624 23.824 14.32 18.128 14.32 11.536V8.976H0.88V2.064H36.08V8.976H23.344V11.536C23.344 18 28.4 22.928 36.4 24.592V31.568C29.296 30.288 22.896 26.96 18.8 22.48C14.576 27.6 8.304 30.736 0.56 32.08ZM44.016 33.36V19.6H33.52V12.24H44.016V1.424H52.72V33.36H44.016ZM19.568 51.664H38.512C42.672 51.664 45.296 49.68 45.296 46.608C45.296 43.536 42.672 41.552 38.512 41.552H19.568C15.408 41.552 12.784 43.536 12.784 46.608C12.784 49.68 15.408 51.664 19.568 51.664ZM60.7325 56.72V49.36H84.6685V39.184H65.5325V2.576H74.2365V13.456H104.189V2.576H112.893V39.184H93.7565V49.36H117.693V56.72H60.7325ZM74.2365 31.888H104.189V20.752H74.2365V31.888ZM121.545 33.04V26.832H178.505V33.04H121.545ZM125.705 58.32V43.92H165.513V41.744H125.705V35.664H174.345V49.744H134.537V52.24H175.625V58.32H125.705ZM125.705 24.336V9.936H165.513V7.76H125.705V1.68H174.345V15.76H134.537V18.256H175.625V24.336H125.705ZM215.239 37.84H239.687C248.007 37.84 253.063 41.872 253.063 48.208C253.063 54.544 248.007 58.576 239.687 58.576H215.239C206.919 58.576 201.863 54.544 201.863 48.208C201.863 41.872 206.919 37.84 215.239 37.84ZM215.815 51.664H239.111C242.375 51.664 244.359 50.192 244.359 48.208C244.359 46.224 242.375 44.752 239.111 44.752H215.815C212.551 44.752 210.567 46.224 210.567 48.208C210.567 50.192 212.551 51.664 215.815 51.664ZM198.983 34V27.152H255.943V34H198.983ZM203.143 23.184V1.68H252.103V8.592H211.847V16.272H253.063V23.184H203.143ZM259.795 38.288V31.44H284.371V27.664H263.955V11.344H303.763V8.272H263.955V1.68H312.595V17.68H272.787V21.072H313.875V27.664H293.459V31.44H316.755V38.288H259.795ZM263.315 48.208V41.04H312.595V58.576H303.891V48.208H263.315ZM352.864 57.296V1.744H361.056V24.592H366.496V1.424H374.688V58.576H366.496V32.4H361.056V57.296H352.864ZM322.848 42.96V27.984C322.848 19.792 327.968 16.4 335.648 16.4C343.328 16.4 348.448 21.072 348.448 29.264V42.96C348.448 51.152 343.328 55.824 335.648 55.824C327.968 55.824 322.848 51.152 322.848 42.96ZM321.568 14.16V6.864H331.04V0.783997H340.256V6.864H349.728V14.16H321.568ZM340.256 41.936V30.288C340.256 26.256 338.464 23.696 335.648 23.696C332.832 23.696 331.04 26.256 331.04 30.288V41.936C331.04 45.968 332.832 48.528 335.648 48.528C338.464 48.528 340.256 45.968 340.256 41.936ZM384.62 31.504V24.528C395.884 23.056 405.228 17.872 405.42 9.936H385.58V2.64H434.22V9.936H414.38C414.508 17.872 423.852 23.056 435.18 24.528V31.504C424.876 30.48 415.788 27.024 409.9 21.52C404.012 27.024 394.924 30.48 384.62 31.504ZM381.42 42.704V35.344H438.38V42.704H414.444V58.576H405.356V42.704H381.42ZM439.672 54.864V47.248C446.265 44.56 451.257 36.752 451.257 25.04V2.384H460.153V25.04C460.153 36.24 464.761 43.408 471.097 46.544V54.16C464.953 52.368 458.937 47.184 455.801 41.36C452.921 47.504 446.649 53.136 439.672 54.864ZM474.809 57.296V27.536H465.593V19.728H474.809V1.744H483.001V57.296H474.809ZM488.121 58.576V1.424H496.313V58.576H488.121ZM503.045 56.4V49.04H514.757V35.408C509.509 32.4 506.565 27.088 506.565 20.24C506.565 9.36 513.989 2.384 526.277 2.384H536.773C548.997 2.384 556.485 9.36 556.485 20.24C556.485 26.96 553.605 32.208 548.549 35.216V49.04H560.005V56.4H503.045ZM525.957 30.8H537.093C543.621 30.8 547.781 26.448 547.781 20.24C547.781 14.032 543.621 9.68 537.093 9.68H525.957C519.429 9.68 515.269 14.032 515.269 20.24C515.269 26.448 519.429 30.8 525.957 30.8ZM523.845 49.04H539.461V37.968C538.565 38.032 537.669 38.096 536.773 38.096H526.277C525.445 38.096 524.613 38.096 523.845 38.032V49.04Z" fill="white"/>
</svg>
