<svg width="185" height="25" viewBox="0 0 185 25" fill="none" xmlns="http://www.w3.org/2000/svg">
<path d="M184.235 0.905273L183.713 14.499H180.907L180.429 0.905273H184.235ZM180.407 16.1738H184.039V19.9365H180.407V16.1738Z" fill="white"/>
<path d="M177.094 1.27502V19.458H174.114L173.962 18.7185C173.542 19.052 173.078 19.313 172.57 19.5015C172.077 19.69 171.533 19.7843 170.939 19.7843C169.837 19.7843 168.887 19.6393 168.09 19.3493C167.292 19.0738 166.632 18.675 166.11 18.153C165.603 17.631 165.226 17.0003 164.979 16.2608C164.733 15.5213 164.61 14.6948 164.61 13.7813V11.3018C164.61 10.3883 164.74 9.56902 165.001 8.84402C165.262 8.10452 165.646 7.48102 166.154 6.97352C166.661 6.45152 167.285 6.05277 168.024 5.77727C168.778 5.48727 169.641 5.34228 170.613 5.34228C171.265 5.34228 171.852 5.42202 172.374 5.58152C172.911 5.74102 173.389 5.96577 173.81 6.25577V1.27502H177.094ZM170.83 16.9133C171.323 16.9133 171.751 16.848 172.113 16.7175C172.476 16.6015 172.78 16.3985 173.027 16.1085C173.288 15.804 173.476 15.4125 173.592 14.934C173.723 14.4555 173.795 13.861 173.81 13.1505V11.9543C173.81 10.8088 173.563 9.90252 173.07 9.23552C172.592 8.55402 171.845 8.21327 170.83 8.21327C169.83 8.21327 169.097 8.48877 168.633 9.03977C168.169 9.57627 167.937 10.4173 167.937 11.5628V13.5638C167.937 14.6948 168.169 15.5358 168.633 16.0868C169.097 16.6378 169.83 16.9133 170.83 16.9133Z" fill="white"/>
<path d="M163.228 15.4995C162.967 16.964 162.278 18.0443 161.162 18.7403C160.06 19.4363 158.682 19.7843 157.029 19.7843C156.029 19.7843 155.13 19.6465 154.332 19.371C153.549 19.0955 152.875 18.6968 152.309 18.1748C151.758 17.6528 151.331 17.022 151.026 16.2825C150.736 15.543 150.591 14.7165 150.591 13.803V11.3235C150.591 10.41 150.736 9.59079 151.026 8.86579C151.331 8.12629 151.758 7.49553 152.309 6.97353C152.86 6.45153 153.527 6.05278 154.31 5.77728C155.108 5.48729 156.007 5.34229 157.007 5.34229C157.993 5.34229 158.885 5.48729 159.683 5.77728C160.48 6.05278 161.154 6.45153 161.705 6.97353C162.271 7.49553 162.699 8.12629 162.989 8.86579C163.293 9.59079 163.445 10.41 163.445 11.3235V11.802C163.46 11.947 163.467 12.092 163.467 12.237C163.467 12.3675 163.467 12.5053 163.467 12.6503V13.5638H153.897C153.897 14.8108 154.165 15.688 154.702 16.1955C155.238 16.6885 156.014 16.935 157.029 16.935C157.696 16.935 158.276 16.8335 158.769 16.6305C159.262 16.4275 159.567 16.0505 159.683 15.4995H163.228ZM157.007 8.23503C156.094 8.23503 155.376 8.43079 154.854 8.82229C154.347 9.21379 154.035 9.88803 153.919 10.845H160.009C159.907 9.88803 159.603 9.21379 159.095 8.82229C158.602 8.43079 157.906 8.23503 157.007 8.23503Z" fill="white"/>
<path d="M150.276 8.90923L144.969 11.0625V19.458H141.598V5.84248H144.534L144.817 7.62598L150.276 5.64673V8.90923Z" fill="white"/>
<path d="M139.672 15.4995C139.411 16.964 138.723 18.0443 137.606 18.7403C136.504 19.4363 135.127 19.7843 133.474 19.7843C132.473 19.7843 131.574 19.6465 130.777 19.371C129.994 19.0955 129.319 18.6968 128.754 18.1748C128.203 17.6528 127.775 17.022 127.471 16.2825C127.181 15.543 127.036 14.7165 127.036 13.803V11.3235C127.036 10.41 127.181 9.59079 127.471 8.86579C127.775 8.12629 128.203 7.49553 128.754 6.97353C129.305 6.45153 129.972 6.05278 130.755 5.77728C131.552 5.48729 132.451 5.34229 133.452 5.34229C134.438 5.34229 135.33 5.48729 136.127 5.77728C136.925 6.05278 137.599 6.45153 138.15 6.97353C138.715 7.49553 139.143 8.12629 139.433 8.86579C139.738 9.59079 139.89 10.41 139.89 11.3235V11.802C139.904 11.947 139.912 12.092 139.912 12.237C139.912 12.3675 139.912 12.5053 139.912 12.6503V13.5638H130.342C130.342 14.8108 130.61 15.688 131.146 16.1955C131.683 16.6885 132.459 16.935 133.474 16.935C134.141 16.935 134.721 16.8335 135.214 16.6305C135.707 16.4275 136.011 16.0505 136.127 15.4995H139.672ZM133.452 8.23503C132.538 8.23503 131.821 8.43079 131.299 8.82229C130.791 9.21379 130.479 9.88803 130.363 10.845H136.453C136.352 9.88803 136.047 9.21379 135.54 8.82229C135.047 8.43079 134.351 8.23503 133.452 8.23503Z" fill="white"/>
<path d="M123.638 1.27502V6.03827H126.226V8.88753H123.638V14.8035C123.638 15.0935 123.652 15.3618 123.681 15.6083C123.71 15.8403 123.775 16.0505 123.877 16.239C123.993 16.4275 124.167 16.5725 124.399 16.674C124.631 16.7755 124.957 16.8263 125.378 16.8263H126.465V19.6973H124.834C123.949 19.6973 123.217 19.5885 122.637 19.371C122.057 19.1535 121.593 18.8563 121.245 18.4793C120.897 18.1023 120.651 17.6455 120.506 17.109C120.361 16.587 120.288 16.007 120.288 15.369V8.88753H117.917V6.03827H120.288V1.27502H123.638Z" fill="white"/>
<path d="M108.61 14.9123C108.624 15.3183 108.704 15.6518 108.849 15.9128C108.994 16.1738 109.183 16.3768 109.415 16.5218C109.661 16.6813 109.944 16.79 110.263 16.848C110.582 16.906 110.923 16.935 111.285 16.935C111.619 16.935 111.945 16.9133 112.264 16.8698C112.597 16.8408 112.887 16.7755 113.134 16.674C113.395 16.5725 113.598 16.4275 113.743 16.239C113.902 16.0505 113.975 15.804 113.96 15.4995C113.946 15.1515 113.757 14.8615 113.395 14.6295C113.032 14.3975 112.576 14.1945 112.025 14.0205C111.474 13.832 110.857 13.6653 110.176 13.5203C109.509 13.3608 108.864 13.1795 108.24 12.9765C107.356 12.6865 106.718 12.2443 106.326 11.6498C105.949 11.0408 105.753 10.3303 105.739 9.51828C105.724 8.86578 105.862 8.27853 106.152 7.75653C106.442 7.23453 106.834 6.79954 107.327 6.45154C107.82 6.08904 108.385 5.81354 109.023 5.62504C109.676 5.43654 110.364 5.34229 111.089 5.34229C111.916 5.34229 112.677 5.43654 113.373 5.62504C114.084 5.81354 114.7 6.09628 115.222 6.47328C115.744 6.85028 116.164 7.32878 116.483 7.90878C116.802 8.48878 116.984 9.17753 117.027 9.97503H113.743C113.627 9.42403 113.359 8.98903 112.938 8.67004C112.518 8.35103 111.923 8.19879 111.155 8.21329C110.531 8.22779 110.024 8.33653 109.632 8.53954C109.255 8.74254 109.067 9.09779 109.067 9.60529C109.067 9.86629 109.161 10.0983 109.349 10.3013C109.538 10.5043 109.879 10.6855 110.372 10.845C110.923 11.019 111.524 11.164 112.177 11.28C112.829 11.396 113.475 11.5918 114.113 11.8673C114.504 12.0413 114.896 12.2515 115.287 12.498C115.679 12.73 116.027 13.0055 116.331 13.3245C116.636 13.629 116.875 13.977 117.049 14.3685C117.237 14.7455 117.332 15.1588 117.332 15.6083C117.332 16.4638 117.172 17.1598 116.853 17.6963C116.534 18.2328 116.099 18.6533 115.548 18.9578C115.012 19.2768 114.374 19.4943 113.634 19.6103C112.909 19.7263 112.126 19.7843 111.285 19.7843C110.502 19.7843 109.755 19.7045 109.045 19.545C108.334 19.3855 107.704 19.1173 107.153 18.7403C106.602 18.3778 106.159 17.8848 105.826 17.2613C105.492 16.6378 105.311 15.8548 105.282 14.9123H108.61Z" fill="white"/>
<path d="M103.596 19.458H100.224V6.06003H103.596V19.458ZM100.224 4.36352V1.27502H103.596V4.36352H100.224Z" fill="white"/>
<path d="M91.5176 21.6548C91.9961 21.6548 92.4383 21.6113 92.8443 21.5243C93.2503 21.4518 93.5983 21.285 93.8883 21.024C94.1783 20.7775 94.4031 20.415 94.5626 19.9365C94.7221 19.458 94.8018 18.8128 94.8018 18.0008V17.892C94.3668 18.1965 93.8811 18.4358 93.3446 18.6098C92.8081 18.7983 92.2063 18.8925 91.5393 18.8925C90.5388 18.8925 89.6543 18.7475 88.8858 18.4575C88.1173 18.182 87.4721 17.7833 86.9501 17.2613C86.4281 16.7538 86.0293 16.1303 85.7538 15.3908C85.4928 14.6513 85.3623 13.8248 85.3623 12.9113V11.3018C85.3623 10.3883 85.5001 9.56903 85.7756 8.84403C86.0511 8.10453 86.4498 7.48103 86.9718 6.97353C87.4938 6.45153 88.1318 6.05278 88.8858 5.77728C89.6543 5.48729 90.5243 5.34229 91.4958 5.34229C92.2208 5.34229 92.8661 5.44379 93.4316 5.64679C94.0116 5.83528 94.5336 6.10353 94.9976 6.45154L95.2368 5.84254H98.1078V17.544C98.1078 19.0665 97.9121 20.2773 97.5206 21.1763C97.1436 22.0898 96.6361 22.7858 95.9981 23.2643C95.3746 23.7428 94.6641 24.0545 93.8666 24.1995C93.0691 24.359 92.2571 24.4388 91.4306 24.4388C90.6621 24.4388 89.9588 24.3445 89.3208 24.156C88.6828 23.982 88.1173 23.7065 87.6243 23.3295C87.1313 22.967 86.7326 22.5103 86.4281 21.9593C86.1235 21.4083 85.9278 20.7703 85.8408 20.0453H89.1468C89.2048 20.4513 89.415 20.821 89.7775 21.1545C90.1545 21.488 90.7346 21.6548 91.5176 21.6548ZM91.7133 15.9998C92.6993 15.9998 93.4533 15.7098 93.9753 15.1298C94.4973 14.5498 94.7728 13.716 94.8018 12.6285V11.5845C94.8018 9.35154 93.7723 8.23503 91.7133 8.23503C90.7128 8.23503 89.9588 8.51054 89.4513 9.06154C88.9583 9.59804 88.7118 10.4318 88.7118 11.5628V12.6938C88.7118 13.8248 88.9583 14.6585 89.4513 15.195C89.9588 15.7315 90.7128 15.9998 91.7133 15.9998Z" fill="white"/>
<path d="M83.9805 15.4995C83.7195 16.964 83.0307 18.0443 81.9142 18.7403C80.8122 19.4363 79.4347 19.7843 77.7817 19.7843C76.7812 19.7843 75.8822 19.6465 75.0847 19.371C74.3017 19.0955 73.6275 18.6968 73.062 18.1748C72.511 17.6528 72.0832 17.022 71.7787 16.2825C71.4887 15.543 71.3438 14.7165 71.3438 13.803V11.3235C71.3438 10.41 71.4887 9.59079 71.7787 8.86579C72.0832 8.12629 72.511 7.49553 73.062 6.97353C73.613 6.45153 74.28 6.05278 75.063 5.77728C75.8605 5.48729 76.7595 5.34229 77.76 5.34229C78.746 5.34229 79.6377 5.48729 80.4352 5.77728C81.2327 6.05278 81.907 6.45153 82.458 6.97353C83.0235 7.49553 83.4513 8.12629 83.7413 8.86579C84.0458 9.59079 84.198 10.41 84.198 11.3235V11.802C84.2125 11.947 84.2198 12.092 84.2198 12.237C84.2198 12.3675 84.2198 12.5053 84.2198 12.6503V13.5638H74.6497C74.6497 14.8108 74.918 15.688 75.4545 16.1955C75.991 16.6885 76.7667 16.935 77.7817 16.935C78.4487 16.935 79.0287 16.8335 79.5217 16.6305C80.0147 16.4275 80.3192 16.0505 80.4352 15.4995H83.9805ZM77.76 8.23503C76.8465 8.23503 76.1287 8.43079 75.6067 8.82229C75.0992 9.21379 74.7875 9.88803 74.6715 10.845H80.7615C80.66 9.88803 80.3555 9.21379 79.848 8.82229C79.355 8.43079 78.659 8.23503 77.76 8.23503Z" fill="white"/>
<path d="M71.0286 8.90923L65.7216 11.0625V19.458H62.3503V5.84248H65.2866L65.5693 7.62598L71.0286 5.64673V8.90923Z" fill="white"/>
<path d="M60.3903 9.54004V12.5198H52.2993V9.54004H60.3903Z" fill="white"/>
<path d="M50.5696 15.4995C50.3086 16.964 49.6199 18.0443 48.5034 18.7403C47.4014 19.4363 46.0239 19.7843 44.3709 19.7843C43.3704 19.7843 42.4714 19.6465 41.6739 19.371C40.8909 19.0955 40.2166 18.6968 39.6511 18.1748C39.1001 17.6528 38.6724 17.022 38.3679 16.2825C38.0779 15.543 37.9329 14.7165 37.9329 13.803V11.3235C37.9329 10.41 38.0779 9.59079 38.3679 8.86579C38.6724 8.12629 39.1001 7.49553 39.6511 6.97353C40.2021 6.45153 40.8691 6.05278 41.6521 5.77728C42.4496 5.48729 43.3486 5.34229 44.3491 5.34229C45.3351 5.34229 46.2269 5.48729 47.0244 5.77728C47.8219 6.05278 48.4961 6.45153 49.0471 6.97353C49.6126 7.49553 50.0404 8.12629 50.3304 8.86579C50.6349 9.59079 50.7871 10.41 50.7871 11.3235V11.802C50.8016 11.947 50.8089 12.092 50.8089 12.237C50.8089 12.3675 50.8089 12.5053 50.8089 12.6503V13.5638H41.2389C41.2389 14.8108 41.5071 15.688 42.0436 16.1955C42.5801 16.6885 43.3559 16.935 44.3709 16.935C45.0379 16.935 45.6179 16.8335 46.1109 16.6305C46.6039 16.4275 46.9084 16.0505 47.0244 15.4995H50.5696ZM44.3491 8.23503C43.4356 8.23503 42.7179 8.43079 42.1959 8.82229C41.6884 9.21379 41.3766 9.88803 41.2606 10.845H47.3506C47.2491 9.88803 46.9446 9.21379 46.4371 8.82229C45.9441 8.43079 45.2481 8.23503 44.3491 8.23503Z" fill="white"/>
<path d="M37.6177 8.90923L32.3107 11.0625V19.458H28.9395V5.84248H31.8757L32.1585 7.62598L37.6177 5.64673V8.90923Z" fill="white"/>
<path d="M14.7297 24.0255V5.84249H17.753L17.9052 6.69074C18.3402 6.29924 18.8332 5.98749 19.3842 5.75549C19.9352 5.50899 20.5442 5.38574 21.2112 5.38574C22.1827 5.38574 23.0455 5.53074 23.7995 5.82074C24.5535 6.09624 25.1842 6.49499 25.6917 7.01699C26.2137 7.52449 26.6052 8.14799 26.8662 8.88749C27.1272 9.61249 27.2577 10.4317 27.2577 11.3452V13.803C27.2577 15.6445 26.743 17.1017 25.7135 18.1747C24.6985 19.2477 23.1832 19.7842 21.1677 19.7842C20.5007 19.7842 19.9062 19.6972 19.3842 19.5232C18.8767 19.3492 18.42 19.1172 18.014 18.8272V24.0255H14.7297ZM21.0372 8.25674C20.0222 8.25674 19.2682 8.56124 18.7752 9.17024C18.2967 9.77924 18.043 10.6275 18.014 11.715V13.368C18.014 14.499 18.2532 15.3762 18.7317 15.9997C19.2247 16.6232 19.9932 16.935 21.0372 16.935C22.0377 16.935 22.7627 16.6595 23.2122 16.1085C23.6617 15.543 23.8865 14.6947 23.8865 13.5637V11.6062C23.8865 10.4607 23.6617 9.61974 23.2122 9.08324C22.7627 8.53224 22.0377 8.25674 21.0372 8.25674Z" fill="white"/>
<path d="M0.467773 19.458V16.674H2.01202V4.66803H0.467773V1.88403H7.05802V4.66803H5.47027V16.674H7.05802V19.458H0.467773Z" fill="white"/>
</svg>
