<svg width="1083" height="61" viewBox="0 0 1083 61" fill="none" xmlns="http://www.w3.org/2000/svg">
<path d="M0.36 56.864V48.992C9.32 46.368 15.72 36.256 15.72 23.904V4.384H24.744V23.904C24.744 34.976 30.184 45.216 39.464 48.8V56.672C31.848 54.624 23.592 47.584 20.392 40.608C16.488 48.8 8.936 54.816 0.36 56.864ZM45.096 60.576V3.424H53.8V23.84H61.48V31.648H53.8V60.576H45.096ZM64.3725 36.64V29.664C72.4365 28.384 78.1325 22.112 78.1325 15.136V10.976H64.6925V4.064H99.8925V10.976H87.1565V15.136C87.1565 21.984 92.2125 27.488 100.213 29.152V36.128C93.1085 34.848 86.7085 31.136 82.6125 26.656C78.3885 31.776 72.1165 35.296 64.3725 36.64ZM69.1725 60.32V40.48H77.8765V53.152H117.813V60.32H69.1725ZM107.829 45.28V22.944H97.3325V15.52H107.829V3.424H116.533V45.28H107.829ZM140.801 39.84H165.249C173.569 39.84 178.625 43.872 178.625 50.208C178.625 56.544 173.569 60.576 165.249 60.576H140.801C132.481 60.576 127.425 56.544 127.425 50.208C127.425 43.872 132.481 39.84 140.801 39.84ZM141.377 53.664H164.673C167.937 53.664 169.921 52.192 169.921 50.208C169.921 48.224 167.937 46.752 164.673 46.752H141.377C138.113 46.752 136.129 48.224 136.129 50.208C136.129 52.192 138.113 53.664 141.377 53.664ZM124.545 36V29.152H181.505V36H124.545ZM128.705 25.184V3.68H177.665V10.592H137.409V18.272H178.625V25.184H128.705ZM185.358 40.288V33.44H209.934V29.664H189.518V13.344H229.326V10.272H189.518V3.68H238.158V19.68H198.35V23.072H239.438V29.664H219.022V33.44H242.318V40.288H185.358ZM188.878 50.208V43.04H238.158V60.576H229.454V50.208H188.878ZM268.186 38.56H261.274C253.082 38.56 247.13 34.656 247.13 26.72C247.13 18.784 253.082 14.88 261.274 14.88H268.186C276.378 14.88 282.33 18.784 282.33 26.72C282.33 34.656 276.378 38.56 268.186 38.56ZM249.69 60.32V41.76H258.394V53.152H298.33V60.32H249.69ZM288.346 45.28V3.424H297.05V19.04H304.73V26.848H297.05V45.28H288.346ZM245.85 12.896V6.304H260.122V1.632H269.338V6.304H283.61V12.896H245.85ZM262.49 31.648H266.97C271.194 31.648 273.626 29.856 273.626 26.72C273.626 23.584 271.194 21.792 266.97 21.792H262.49C258.394 21.792 255.834 23.584 255.834 26.72C255.834 29.856 258.394 31.648 262.49 31.648ZM362.776 60.576H342.68C333.464 60.576 327.768 55.968 327.768 48.608C327.768 41.248 333.464 36.64 342.68 36.64H362.776C371.992 36.64 377.688 41.248 377.688 48.608C377.688 55.968 371.992 60.576 362.776 60.576ZM324.248 34.08V27.104C332.312 25.824 338.008 20.128 338.008 13.536V10.976H324.568V4.064H359.768V10.976H347.032V13.536C347.032 20 352.088 24.928 360.088 26.592V33.568C352.984 32.288 346.584 28.96 342.488 24.48C338.264 29.6 331.992 32.736 324.248 34.08ZM367.704 35.36V21.6H357.208V14.24H367.704V3.424H376.408V35.36H367.704ZM343.256 53.664H362.2C366.36 53.664 368.984 51.68 368.984 48.608C368.984 45.536 366.36 43.552 362.2 43.552H343.256C339.096 43.552 336.472 45.536 336.472 48.608C336.472 51.68 339.096 53.664 343.256 53.664ZM384.42 58.72V51.36H408.356V41.184H389.22V4.576H397.924V15.456H427.876V4.576H436.58V41.184H417.444V51.36H441.38V58.72H384.42ZM397.924 33.888H427.876V22.752H397.924V33.888ZM445.873 56.224V48.352C459.825 45.28 470.001 30.56 470.001 12.448H446.193V5.024H478.833V10.912C478.833 34.144 465.137 53.024 445.873 56.224ZM487.409 60.576V3.424H496.113V23.84H503.793V31.648H496.113V60.576H487.409ZM523.63 31.584V4.064H558.19V31.584H523.63ZM525.55 60.96V53.984C536.238 53.664 544.43 48.288 545.326 43.552H526.19V36.64H573.55V43.552H554.414C555.246 48.288 563.502 53.664 574.19 53.984V60.96C564.27 60.448 555.502 57.376 549.87 51.936C544.238 57.376 535.47 60.448 525.55 60.96ZM564.846 34.4V3.424H573.55V13.6H581.23V21.408H573.55V34.4H564.846ZM532.334 24.672H549.486V10.976H532.334V24.672ZM583.483 39.456V32.608H640.443V39.456H583.483ZM587.643 60.32V43.04H596.347V53.152H636.923V60.32H587.643ZM587.643 27.104V3.68H596.347V19.936H636.923V27.104H587.643ZM645.255 57.184V49.312C653.703 46.688 659.143 37.536 659.143 25.184V12.32H645.895V5.024H680.711V12.32H668.167V25.184C668.167 36.256 672.903 45.536 681.351 49.12V56.992C674.567 54.944 667.015 48.8 663.815 42.208C659.911 49.952 652.935 55.136 645.255 57.184ZM688.391 60.576V3.424H697.095V60.576H688.391ZM720.453 40.736V34.144H735.429V31.008H734.469C726.917 31.008 722.373 27.104 722.373 21.792C722.373 16.48 726.917 12.576 734.469 12.576H745.477C753.029 12.576 757.573 16.48 757.573 21.792C757.573 27.104 753.029 31.008 745.477 31.008H744.517V34.144H761.349V40.736H720.453ZM723.973 50.528V43.36H772.613V60.576H763.909V50.528H723.973ZM763.909 41.12V3.424H772.613V19.232H780.293V27.04H772.613V41.12H763.909ZM721.093 10.976V4.384H735.365V0.159996H744.581V4.384H758.853V10.976H721.093ZM735.812 24.352H744.133C747.013 24.352 748.869 23.456 748.869 21.792C748.869 20.128 747.013 19.232 744.133 19.232H735.812C732.933 19.232 731.077 20.128 731.077 21.792C731.077 23.456 732.933 24.352 735.812 24.352ZM787.985 60.32V40.48H796.689V53.152H836.625V60.32H787.985ZM826.641 45.28V3.424H835.345V45.28H826.641ZM802.513 35.424H800.593C789.201 35.424 782.865 28.96 782.865 19.424C782.865 9.888 789.201 3.424 800.593 3.424H802.513C813.905 3.424 820.241 9.888 820.241 19.424C820.241 28.96 813.905 35.424 802.513 35.424ZM800.081 28.512H803.025C808.145 28.512 811.537 25.056 811.537 19.424C811.537 13.792 808.145 10.336 803.025 10.336H800.081C794.961 10.336 791.569 13.792 791.569 19.424C791.569 25.056 794.961 28.512 800.081 28.512ZM875.614 59.296V3.744H883.806V26.592H889.246V3.424H897.438V60.576H889.246V34.4H883.806V59.296H875.614ZM845.598 44.96V29.984C845.598 21.792 850.718 18.4 858.398 18.4C866.078 18.4 871.198 23.072 871.198 31.264V44.96C871.198 53.152 866.078 57.824 858.398 57.824C850.718 57.824 845.598 53.152 845.598 44.96ZM844.318 16.16V8.864H853.79V2.784H863.006V8.864H872.478V16.16H844.318ZM863.006 43.936V32.288C863.006 28.256 861.214 25.696 858.398 25.696C855.582 25.696 853.79 28.256 853.79 32.288V43.936C853.79 47.968 855.582 50.528 858.398 50.528C861.214 50.528 863.006 47.968 863.006 43.936ZM904.17 58.72V51.36H928.106V41.184H908.97V4.576H917.674V15.456H947.626V4.576H956.33V41.184H937.194V51.36H961.13V58.72H904.17ZM917.674 33.888H947.626V22.752H917.674V33.888ZM962.422 56.864V49.248C969.015 46.56 974.007 38.752 974.007 27.04V4.384H982.903V27.04C982.903 38.24 987.511 45.408 993.847 48.544V56.16C987.703 54.368 981.687 49.184 978.551 43.36C975.671 49.504 969.399 55.136 962.422 56.864ZM997.559 59.296V29.536H988.343V21.728H997.559V3.744H1005.75V59.296H997.559ZM1010.87 60.576V3.424H1019.06V60.576H1010.87ZM1025.8 58.4V51.04H1037.51V37.408C1032.26 34.4 1029.32 29.088 1029.32 22.24C1029.32 11.36 1036.74 4.384 1049.03 4.384H1059.52C1071.75 4.384 1079.24 11.36 1079.24 22.24C1079.24 28.96 1076.36 34.208 1071.3 37.216V51.04H1082.76V58.4H1025.8ZM1048.71 32.8H1059.84C1066.37 32.8 1070.53 28.448 1070.53 22.24C1070.53 16.032 1066.37 11.68 1059.84 11.68H1048.71C1042.18 11.68 1038.02 16.032 1038.02 22.24C1038.02 28.448 1042.18 32.8 1048.71 32.8ZM1046.6 51.04H1062.21V39.968C1061.32 40.032 1060.42 40.096 1059.52 40.096H1049.03C1048.2 40.096 1047.36 40.096 1046.6 40.032V51.04Z" fill="white"/>
</svg>
