<svg width="281" height="20" viewBox="0 0 281 20" fill="none" xmlns="http://www.w3.org/2000/svg">
<path d="M264.406 19.5625V16.8438H261.688V14.125H267.125V16.8438H275.281V11.4062H264.406V8.6875H261.688V3.25H264.406V0.53125H278V3.25H280.719V5.96875H275.281V3.25H267.125V8.6875H278V11.4062H280.719V16.8438H278V19.5625H264.406Z" fill="white"/>
<path d="M239.938 19.5625V0.53125H253.531V3.25H256.25V5.96875H258.969V14.125H256.25V16.8438H253.531V19.5625H239.938ZM245.375 16.8438H250.812V14.125H253.531V5.96875H250.812V3.25H245.375V16.8438Z" fill="white"/>
<path d="M218.188 19.5625V0.53125H223.625V3.25H226.344V5.96875H229.062V8.6875H231.781V0.53125H237.219V19.5625H231.781V14.125H229.062V11.4062H226.344V8.6875H223.625V19.5625H218.188Z" fill="white"/>
<path d="M196.438 19.5625V0.53125H215.469V3.25H201.875V8.6875H212.75V11.4062H201.875V16.8438H215.469V19.5625H196.438Z" fill="white"/>
<path d="M177.406 19.5625V16.8438H182.844V3.25H177.406V0.53125H193.719V3.25H188.281V16.8438H193.719V19.5625H177.406Z" fill="white"/>
<path d="M152.938 19.5625V0.53125H169.25V3.25H171.969V11.4062H166.531V14.125H169.25V16.8438H171.969V19.5625H163.812V16.8438H161.094V14.125H158.375V19.5625H152.938ZM158.375 11.4062H163.812V8.6875H166.531V3.25H158.375V11.4062Z" fill="white"/>
<path d="M131.188 19.5625V0.53125H150.219V3.25H136.625V8.6875H147.5V11.4062H136.625V19.5625H131.188Z" fill="white"/>
<path d="M90.4062 19.5625V16.8438H87.6875V3.25H90.4062V0.53125H104V3.25H106.719V16.8438H104V19.5625H90.4062ZM93.125 16.8438H101.281V3.25H93.125V16.8438Z" fill="white"/>
<path d="M68.6562 19.5625V0.53125H74.0938V16.8438H84.9688V19.5625H68.6562Z" fill="white"/>
<path d="M46.9062 19.5625V0.53125H52.3438V16.8438H63.2188V19.5625H46.9062Z" fill="white"/>
<path d="M22.4375 19.5625V0.53125H41.4688V3.25H27.875V8.6875H38.75V11.4062H27.875V16.8438H41.4688V19.5625H22.4375Z" fill="white"/>
<path d="M0.6875 19.5625V0.53125H6.125V8.6875H14.2812V0.53125H19.7188V19.5625H14.2812V11.4062H6.125V19.5625H0.6875Z" fill="white"/>
</svg>
