<svg width="211" height="33" viewBox="0 0 211 33" fill="none" xmlns="http://www.w3.org/2000/svg">
<path d="M22.112 32.824H10.808C5.624 32.824 2.42 30.232 2.42 26.092C2.42 21.952 5.624 19.36 10.808 19.36H22.112C27.296 19.36 30.5 21.952 30.5 26.092C30.5 30.232 27.296 32.824 22.112 32.824ZM0.44 17.92V13.996C4.976 13.276 8.18 10.072 8.18 6.364V4.924H0.62V1.036H20.42V4.924H13.256V6.364C13.256 10 16.1 12.772 20.6 13.708V17.632C16.604 16.912 13.004 15.04 10.7 12.52C8.324 15.4 4.796 17.164 0.44 17.92ZM24.884 18.64V10.9H18.98V6.76H24.884V0.675998H29.78V18.64H24.884ZM11.132 28.936H21.788C24.128 28.936 25.604 27.82 25.604 26.092C25.604 24.364 24.128 23.248 21.788 23.248H11.132C8.792 23.248 7.316 24.364 7.316 26.092C7.316 27.82 8.792 28.936 11.132 28.936ZM34.287 31.78V27.64H47.751V21.916H36.987V1.324H41.883V7.444H58.731V1.324H63.627V21.916H52.863V27.64H66.327V31.78H34.287ZM41.883 17.812H58.731V11.548H41.883V17.812ZM86.9896 21.16H100.742C105.422 21.16 108.266 23.428 108.266 26.992C108.266 30.556 105.422 32.824 100.742 32.824H86.9896C82.3096 32.824 79.4656 30.556 79.4656 26.992C79.4656 23.428 82.3096 21.16 86.9896 21.16ZM87.3136 28.936H100.418C102.254 28.936 103.37 28.108 103.37 26.992C103.37 25.876 102.254 25.048 100.418 25.048H87.3136C85.4776 25.048 84.3616 25.876 84.3616 26.992C84.3616 28.108 85.4776 28.936 87.3136 28.936ZM77.8456 19V15.148H109.886V19H77.8456ZM80.1856 12.916V0.819998H107.726V4.708H85.0816V9.028H108.266V12.916H80.1856ZM112.053 21.412V17.56H125.877V15.436H114.393V6.256H136.785V4.528H114.393V0.819998H141.753V9.82H119.361V11.728H142.473V15.436H130.989V17.56H144.093V21.412H112.053ZM114.033 26.992V22.96H141.753V32.824H136.857V26.992H114.033ZM147.448 22.24V18.136C147.448 12.376 151.156 9.1 156.7 9.1C162.244 9.1 165.952 12.376 165.952 18.136V22.24C165.952 28 162.244 31.276 156.7 31.276C151.156 31.276 147.448 28 147.448 22.24ZM169.984 32.824V0.675998H174.88V13.78H179.2V18.172H174.88V32.824H169.984ZM152.344 18.028V22.348C152.344 25.3 153.964 27.172 156.7 27.172C159.436 27.172 161.056 25.3 161.056 22.348V18.028C161.056 15.076 159.436 13.204 156.7 13.204C153.964 13.204 152.344 15.076 152.344 18.028ZM146.44 7.84V3.736H154.108V0.315998H159.292V3.736H166.96V7.84H146.44ZM205.271 32.824V0.675998H210.167V32.824H205.271ZM181.187 30.376V25.948C189.035 24.22 194.903 15.94 194.903 5.752H181.367V1.576H199.871V4.888C199.871 17.956 192.023 28.576 181.187 30.376Z" fill="black"/>
</svg>
