<svg width="308" height="25" viewBox="0 0 308 25" fill="none" xmlns="http://www.w3.org/2000/svg">
<path d="M307.096 0.905151L306.574 14.4989H303.768L303.29 0.905151H307.096ZM303.268 16.1737H306.9V19.9364H303.268V16.1737Z" fill="white"/>
<path d="M300.298 15.4994C300.037 16.9639 299.349 18.0442 298.232 18.7402C297.13 19.4362 295.753 19.7842 294.1 19.7842C293.099 19.7842 292.2 19.6464 291.403 19.3709C290.62 19.0954 289.945 18.6967 289.38 18.1747C288.829 17.6527 288.401 17.0219 288.097 16.2824C287.807 15.5429 287.662 14.7164 287.662 13.8029V11.3234C287.662 10.4099 287.807 9.59066 288.097 8.86566C288.401 8.12616 288.829 7.49541 289.38 6.97341C289.931 6.45141 290.598 6.05266 291.381 5.77716C292.178 5.48716 293.077 5.34216 294.078 5.34216C295.064 5.34216 295.956 5.48716 296.753 5.77716C297.551 6.05266 298.225 6.45141 298.776 6.97341C299.341 7.49541 299.769 8.12616 300.059 8.86566C300.364 9.59066 300.516 10.4099 300.516 11.3234V11.8019C300.53 11.9469 300.538 12.0919 300.538 12.2369C300.538 12.3674 300.538 12.5052 300.538 12.6502V13.5637H290.968C290.968 14.8107 291.236 15.6879 291.772 16.1954C292.309 16.6884 293.085 16.9349 294.1 16.9349C294.767 16.9349 295.347 16.8334 295.84 16.6304C296.333 16.4274 296.637 16.0504 296.753 15.4994H300.298ZM294.078 8.23491C293.164 8.23491 292.447 8.43066 291.925 8.82216C291.417 9.21366 291.105 9.88791 290.989 10.8449H297.079C296.978 9.88791 296.673 9.21366 296.166 8.82216C295.673 8.43066 294.977 8.23491 294.078 8.23491Z" fill="white"/>
<path d="M286.457 14.8687C286.457 16.4492 285.957 17.6599 284.956 18.5009C283.97 19.3564 282.535 19.7842 280.65 19.7842C279.548 19.7842 278.598 19.6464 277.8 19.3709C277.017 19.0954 276.372 18.6967 275.865 18.1747C275.357 17.6527 274.98 17.0219 274.734 16.2824C274.502 15.5429 274.386 14.7164 274.386 13.8029V11.3234C274.386 10.4099 274.523 9.59066 274.799 8.86566C275.074 8.12616 275.473 7.49541 275.995 6.97341C276.532 6.45141 277.184 6.05266 277.953 5.77716C278.736 5.48716 279.62 5.34216 280.606 5.34216C281.491 5.34216 282.288 5.46541 282.999 5.71191C283.724 5.95841 284.333 6.29916 284.826 6.73416C285.333 7.16916 285.732 7.69116 286.022 8.30016C286.312 8.89466 286.479 9.53991 286.522 10.2359H283.347C283.245 9.67041 282.97 9.19916 282.52 8.82216C282.085 8.43066 281.476 8.23491 280.693 8.23491C279.678 8.23491 278.924 8.51041 278.431 9.06141C277.938 9.59791 277.692 10.4317 277.692 11.5627V13.5637C277.692 14.1292 277.742 14.6294 277.844 15.0644C277.945 15.4849 278.112 15.8329 278.344 16.1084C278.576 16.3839 278.881 16.5869 279.258 16.7174C279.635 16.8624 280.099 16.9349 280.65 16.9349C281.447 16.9349 282.078 16.7682 282.542 16.4347C283.02 16.0867 283.296 15.5647 283.368 14.8687H286.457Z" fill="white"/>
<path d="M263.468 5.84237L263.707 6.97337C264.026 6.55287 264.483 6.18312 265.077 5.86412C265.686 5.54512 266.353 5.38562 267.078 5.38562C268.05 5.38562 268.905 5.53062 269.645 5.82062C270.384 6.09612 270.993 6.49487 271.472 7.01687C271.965 7.52437 272.335 8.14787 272.581 8.88737C272.828 9.61237 272.951 10.4316 272.951 11.3451V19.4579H269.58V11.6061C269.58 10.4606 269.377 9.61962 268.971 9.08312C268.579 8.53212 267.876 8.25662 266.861 8.25662C265.875 8.25662 265.106 8.60462 264.555 9.30062C264.019 9.98212 263.736 10.8666 263.707 11.9541V19.4579H260.423V5.84237H263.468Z" fill="white"/>
<path d="M245.945 15.5864C245.945 14.8324 246.046 14.1727 246.249 13.6072C246.452 13.0272 246.771 12.5414 247.206 12.1499C247.656 11.7584 248.236 11.4684 248.946 11.2799C249.671 11.0769 250.556 10.9754 251.6 10.9754H254.928V10.0619C254.928 9.56893 254.717 9.13393 254.297 8.75693C253.876 8.36543 253.275 8.16968 252.492 8.16968C252.144 8.16968 251.825 8.18418 251.535 8.21318C251.245 8.24218 250.984 8.30743 250.752 8.40893C250.534 8.51043 250.338 8.65543 250.164 8.84393C250.005 9.03243 249.882 9.28618 249.795 9.60518H246.554C246.742 8.27118 247.33 7.21993 248.316 6.45143C249.302 5.66843 250.701 5.29868 252.513 5.34218C254.369 5.37118 255.783 5.81343 256.755 6.66893C257.741 7.52443 258.234 8.82943 258.234 10.5839V19.4579H255.254L255.123 18.1094C254.543 18.7909 253.884 19.2404 253.144 19.4579C252.405 19.6754 251.549 19.7842 250.578 19.7842C249.911 19.7842 249.294 19.7044 248.729 19.5449C248.163 19.3854 247.67 19.1317 247.25 18.7837C246.844 18.4502 246.525 18.0152 246.293 17.4787C246.061 16.9567 245.945 16.3259 245.945 15.5864ZM251.317 16.8697C251.607 16.8552 251.955 16.7972 252.361 16.6957C252.782 16.6087 253.18 16.4564 253.557 16.2389C253.934 16.0214 254.253 15.7387 254.514 15.3907C254.79 15.0282 254.928 14.5787 254.928 14.0422V13.6942H251.774C250.831 13.6942 250.172 13.8247 249.795 14.0857C249.418 14.3467 249.229 14.8107 249.229 15.4777C249.229 15.7822 249.294 16.0287 249.425 16.2172C249.57 16.4057 249.744 16.5507 249.947 16.6522C250.164 16.7537 250.389 16.8189 250.621 16.8479C250.868 16.8769 251.1 16.8842 251.317 16.8697Z" fill="white"/>
<path d="M239.211 15.1732L242.256 5.84241H245.867L240.995 19.4579H237.428L232.556 5.84241H236.123L239.211 15.1732Z" fill="white"/>
<path d="M231.2 1.2749V19.4579H228.221L228.068 18.7184C227.648 19.0519 227.184 19.3129 226.676 19.5014C226.183 19.6899 225.64 19.7842 225.045 19.7842C223.943 19.7842 222.993 19.6392 222.196 19.3492C221.398 19.0737 220.739 18.6749 220.217 18.1529C219.709 17.6309 219.332 17.0002 219.086 16.2607C218.839 15.5212 218.716 14.6947 218.716 13.7812V11.3017C218.716 10.3882 218.846 9.5689 219.107 8.8439C219.368 8.1044 219.753 7.4809 220.26 6.9734C220.768 6.4514 221.391 6.05265 222.131 5.77715C222.885 5.48715 223.747 5.34215 224.719 5.34215C225.371 5.34215 225.959 5.4219 226.481 5.5814C227.017 5.7409 227.496 5.96565 227.916 6.25565V1.2749H231.2ZM224.936 16.9132C225.429 16.9132 225.857 16.8479 226.22 16.7174C226.582 16.6014 226.887 16.3984 227.133 16.1084C227.394 15.8039 227.583 15.4124 227.699 14.9339C227.829 14.4554 227.902 13.8609 227.916 13.1504V11.9542C227.916 10.8087 227.67 9.9024 227.177 9.2354C226.698 8.5539 225.951 8.21315 224.936 8.21315C223.936 8.21315 223.204 8.48865 222.74 9.03965C222.276 9.57615 222.044 10.4172 222.044 11.5627V13.5637C222.044 14.6947 222.276 15.5357 222.74 16.0867C223.204 16.6377 223.936 16.9132 224.936 16.9132Z" fill="white"/>
<path d="M204.781 15.5864C204.781 14.8324 204.883 14.1727 205.086 13.6072C205.289 13.0272 205.608 12.5414 206.043 12.1499C206.492 11.7584 207.072 11.4684 207.783 11.2799C208.508 11.0769 209.392 10.9754 210.436 10.9754H213.764V10.0619C213.764 9.56893 213.554 9.13393 213.133 8.75693C212.713 8.36543 212.111 8.16968 211.328 8.16968C210.98 8.16968 210.661 8.18418 210.371 8.21318C210.081 8.24218 209.82 8.30743 209.588 8.40893C209.371 8.51043 209.175 8.65543 209.001 8.84393C208.841 9.03243 208.718 9.28618 208.631 9.60518H205.39C205.579 8.27118 206.166 7.21993 207.152 6.45143C208.138 5.66843 209.537 5.29868 211.35 5.34218C213.206 5.37118 214.62 5.81343 215.591 6.66893C216.577 7.52443 217.07 8.82943 217.07 10.5839V19.4579H214.09L213.96 18.1094C213.38 18.7909 212.72 19.2404 211.981 19.4579C211.241 19.6754 210.386 19.7842 209.414 19.7842C208.747 19.7842 208.131 19.7044 207.565 19.5449C207 19.3854 206.507 19.1317 206.086 18.7837C205.68 18.4502 205.361 18.0152 205.129 17.4787C204.897 16.9567 204.781 16.3259 204.781 15.5864ZM210.154 16.8697C210.444 16.8552 210.792 16.7972 211.198 16.6957C211.618 16.6087 212.017 16.4564 212.394 16.2389C212.771 16.0214 213.09 15.7387 213.351 15.3907C213.626 15.0282 213.764 14.5787 213.764 14.0422V13.6942H210.61C209.668 13.6942 209.008 13.8247 208.631 14.0857C208.254 14.3467 208.066 14.8107 208.066 15.4777C208.066 15.7822 208.131 16.0287 208.261 16.2172C208.406 16.4057 208.58 16.5507 208.783 16.6522C209.001 16.7537 209.226 16.8189 209.458 16.8479C209.704 16.8769 209.936 16.8842 210.154 16.8697Z" fill="white"/>
<path d="M188.001 5.84237L188.241 6.97337C188.56 6.55287 189.016 6.18312 189.611 5.86412C190.22 5.54512 190.887 5.38562 191.612 5.38562C192.583 5.38562 193.439 5.53062 194.178 5.82062C194.918 6.09612 195.527 6.49487 196.005 7.01687C196.498 7.52437 196.868 8.14787 197.115 8.88737C197.361 9.61237 197.484 10.4316 197.484 11.3451V19.4579H194.113V11.6061C194.113 10.4606 193.91 9.61962 193.504 9.08312C193.113 8.53212 192.409 8.25662 191.394 8.25662C190.408 8.25662 189.64 8.60462 189.089 9.30062C188.552 9.98212 188.27 10.8666 188.241 11.9541V19.4579H184.956V5.84237H188.001Z" fill="white"/>
<path d="M182.595 19.4579H179.224V6.0599H182.595V19.4579ZM179.224 4.3634V1.2749H182.595V4.3634H179.224Z" fill="white"/>
<path d="M171.672 8.90911L166.365 11.0624V19.4579H162.994V5.84236H165.93L166.213 7.62586L171.672 5.64661V8.90911Z" fill="white"/>
<path d="M161.069 15.4994C160.808 16.9639 160.119 18.0442 159.002 18.7402C157.9 19.4362 156.523 19.7842 154.87 19.7842C153.869 19.7842 152.97 19.6464 152.173 19.3709C151.39 19.0954 150.716 18.6967 150.15 18.1747C149.599 17.6527 149.171 17.0219 148.867 16.2824C148.577 15.5429 148.432 14.7164 148.432 13.8029V11.3234C148.432 10.4099 148.577 9.59066 148.867 8.86566C149.171 8.12616 149.599 7.49541 150.15 6.97341C150.701 6.45141 151.368 6.05266 152.151 5.77716C152.949 5.48716 153.848 5.34216 154.848 5.34216C155.834 5.34216 156.726 5.48716 157.523 5.77716C158.321 6.05266 158.995 6.45141 159.546 6.97341C160.112 7.49541 160.539 8.12616 160.829 8.86566C161.134 9.59066 161.286 10.4099 161.286 11.3234V11.8019C161.301 11.9469 161.308 12.0919 161.308 12.2369C161.308 12.3674 161.308 12.5052 161.308 12.6502V13.5637H151.738C151.738 14.8107 152.006 15.6879 152.543 16.1954C153.079 16.6884 153.855 16.9349 154.87 16.9349C155.537 16.9349 156.117 16.8334 156.61 16.6304C157.103 16.4274 157.407 16.0504 157.523 15.4994H161.069ZM154.848 8.23491C153.935 8.23491 153.217 8.43066 152.695 8.82216C152.187 9.21366 151.876 9.88791 151.76 10.8449H157.85C157.748 9.88791 157.444 9.21366 156.936 8.82216C156.443 8.43066 155.747 8.23491 154.848 8.23491Z" fill="white"/>
<path d="M145.034 1.2749V6.03815H147.622V8.8874H145.034V14.8034C145.034 15.0934 145.048 15.3617 145.077 15.6082C145.106 15.8402 145.172 16.0504 145.273 16.2389C145.389 16.4274 145.563 16.5724 145.795 16.6739C146.027 16.7754 146.353 16.8262 146.774 16.8262H147.861V19.6972H146.23C145.346 19.6972 144.613 19.5884 144.033 19.3709C143.453 19.1534 142.989 18.8562 142.641 18.4792C142.293 18.1022 142.047 17.6454 141.902 17.1089C141.757 16.5869 141.684 16.0069 141.684 15.3689V8.8874H139.314V6.03815H141.684V1.2749H145.034Z" fill="white"/>
<path d="M130.006 14.9122C130.021 15.3182 130.1 15.6517 130.245 15.9127C130.39 16.1737 130.579 16.3767 130.811 16.5217C131.057 16.6812 131.34 16.7899 131.659 16.8479C131.978 16.9059 132.319 16.9349 132.681 16.9349C133.015 16.9349 133.341 16.9132 133.66 16.8697C133.994 16.8407 134.284 16.7754 134.53 16.6739C134.791 16.5724 134.994 16.4274 135.139 16.2389C135.299 16.0504 135.371 15.8039 135.357 15.4994C135.342 15.1514 135.154 14.8614 134.791 14.6294C134.429 14.3974 133.972 14.1944 133.421 14.0204C132.87 13.8319 132.254 13.6652 131.572 13.5202C130.905 13.3607 130.26 13.1794 129.636 12.9764C128.752 12.6864 128.114 12.2442 127.722 11.6497C127.345 11.0407 127.15 10.3302 127.135 9.51816C127.121 8.86566 127.258 8.27841 127.548 7.75641C127.838 7.23441 128.23 6.79941 128.723 6.45141C129.216 6.08891 129.781 5.81341 130.419 5.62491C131.072 5.43641 131.761 5.34216 132.486 5.34216C133.312 5.34216 134.073 5.43641 134.769 5.62491C135.48 5.81341 136.096 6.09616 136.618 6.47316C137.14 6.85016 137.561 7.32866 137.88 7.90866C138.199 8.48866 138.38 9.17741 138.423 9.97491H135.139C135.023 9.42391 134.755 8.98891 134.334 8.66991C133.914 8.35091 133.319 8.19866 132.551 8.21316C131.927 8.22766 131.42 8.33641 131.028 8.53941C130.651 8.74241 130.463 9.09766 130.463 9.60516C130.463 9.86616 130.557 10.0982 130.746 10.3012C130.934 10.5042 131.275 10.6854 131.768 10.8449C132.319 11.0189 132.921 11.1639 133.573 11.2799C134.226 11.3959 134.871 11.5917 135.509 11.8672C135.9 12.0412 136.292 12.2514 136.683 12.4979C137.075 12.7299 137.423 13.0054 137.727 13.3244C138.032 13.6289 138.271 13.9769 138.445 14.3684C138.634 14.7454 138.728 15.1587 138.728 15.6082C138.728 16.4637 138.568 17.1597 138.249 17.6962C137.93 18.2327 137.495 18.6532 136.944 18.9577C136.408 19.2767 135.77 19.4942 135.03 19.6102C134.305 19.7262 133.522 19.7842 132.681 19.7842C131.898 19.7842 131.152 19.7044 130.441 19.5449C129.731 19.3854 129.1 19.1172 128.549 18.7402C127.998 18.3777 127.556 17.8847 127.222 17.2612C126.889 16.6377 126.707 15.8547 126.678 14.9122H130.006Z" fill="white"/>
<path d="M124.992 19.4579H121.621V6.0599H124.992V19.4579ZM121.621 4.3634V1.2749H124.992V4.3634H121.621Z" fill="white"/>
<path d="M112.914 21.6547C113.392 21.6547 113.835 21.6112 114.241 21.5242C114.647 21.4517 114.995 21.2849 115.285 21.0239C115.575 20.7774 115.799 20.4149 115.959 19.9364C116.118 19.4579 116.198 18.8127 116.198 18.0007V17.8919C115.763 18.1964 115.277 18.4357 114.741 18.6097C114.204 18.7982 113.603 18.8924 112.936 18.8924C111.935 18.8924 111.051 18.7474 110.282 18.4574C109.514 18.1819 108.868 17.7832 108.346 17.2612C107.824 16.7537 107.426 16.1302 107.15 15.3907C106.889 14.6512 106.759 13.8247 106.759 12.9112V11.3017C106.759 10.3882 106.896 9.56891 107.172 8.84391C107.447 8.10441 107.846 7.48091 108.368 6.97341C108.89 6.45141 109.528 6.05266 110.282 5.77716C111.051 5.48716 111.921 5.34216 112.892 5.34216C113.617 5.34216 114.262 5.44366 114.828 5.64666C115.408 5.83516 115.93 6.10341 116.394 6.45141L116.633 5.84241H119.504V17.5439C119.504 19.0664 119.308 20.2772 118.917 21.1762C118.54 22.0897 118.032 22.7857 117.394 23.2642C116.771 23.7427 116.06 24.0544 115.263 24.1994C114.465 24.3589 113.653 24.4387 112.827 24.4387C112.058 24.4387 111.355 24.3444 110.717 24.1559C110.079 23.9819 109.514 23.7064 109.021 23.3294C108.528 22.9669 108.129 22.5102 107.824 21.9592C107.52 21.4082 107.324 20.7702 107.237 20.0452H110.543C110.601 20.4512 110.811 20.8209 111.174 21.1544C111.551 21.4879 112.131 21.6547 112.914 21.6547ZM113.11 15.9997C114.096 15.9997 114.85 15.7097 115.372 15.1297C115.894 14.5497 116.169 13.7159 116.198 12.6284V11.5844C116.198 9.35141 115.169 8.23491 113.11 8.23491C112.109 8.23491 111.355 8.51041 110.848 9.06141C110.355 9.59791 110.108 10.4317 110.108 11.5627V12.6937C110.108 13.8247 110.355 14.6584 110.848 15.1949C111.355 15.7314 112.109 15.9997 113.11 15.9997Z" fill="white"/>
<path d="M105.377 15.4994C105.116 16.9639 104.427 18.0442 103.31 18.7402C102.208 19.4362 100.831 19.7842 99.178 19.7842C98.1775 19.7842 97.2785 19.6464 96.481 19.3709C95.698 19.0954 95.0237 18.6967 94.4582 18.1747C93.9072 17.6527 93.4795 17.0219 93.175 16.2824C92.885 15.5429 92.74 14.7164 92.74 13.8029V11.3234C92.74 10.4099 92.885 9.59066 93.175 8.86566C93.4795 8.12616 93.9072 7.49541 94.4582 6.97341C95.0092 6.45141 95.6762 6.05266 96.4592 5.77716C97.2567 5.48716 98.1557 5.34216 99.1562 5.34216C100.142 5.34216 101.034 5.48716 101.831 5.77716C102.629 6.05266 103.303 6.45141 103.854 6.97341C104.42 7.49541 104.847 8.12616 105.137 8.86566C105.442 9.59066 105.594 10.4099 105.594 11.3234V11.8019C105.609 11.9469 105.616 12.0919 105.616 12.2369C105.616 12.3674 105.616 12.5052 105.616 12.6502V13.5637H96.046C96.046 14.8107 96.3142 15.6879 96.8507 16.1954C97.3872 16.6884 98.163 16.9349 99.178 16.9349C99.845 16.9349 100.425 16.8334 100.918 16.6304C101.411 16.4274 101.715 16.0504 101.831 15.4994H105.377ZM99.1562 8.23491C98.2427 8.23491 97.525 8.43066 97.003 8.82216C96.4955 9.21366 96.1837 9.88791 96.0677 10.8449H102.158C102.056 9.88791 101.752 9.21366 101.244 8.82216C100.751 8.43066 100.055 8.23491 99.1562 8.23491Z" fill="white"/>
<path d="M92.4248 8.90911L87.1178 11.0624V19.4579H83.7466V5.84236H86.6828L86.9656 7.62586L92.4248 5.64661V8.90911Z" fill="white"/>
<path d="M73.4756 1.2749V6.03815H76.0638V8.8874H73.4756V14.8034C73.4756 15.0934 73.4901 15.3617 73.5191 15.6082C73.5481 15.8402 73.6133 16.0504 73.7148 16.2389C73.8308 16.4274 74.0048 16.5724 74.2368 16.6739C74.4688 16.7754 74.7951 16.8262 75.2156 16.8262H76.3031V19.6972H74.6718C73.7873 19.6972 73.0551 19.5884 72.4751 19.3709C71.8951 19.1534 71.4311 18.8562 71.0831 18.4792C70.7351 18.1022 70.4886 17.6454 70.3436 17.1089C70.1986 16.5869 70.1261 16.0069 70.1261 15.3689V8.8874H67.7553V6.03815H70.1261V1.2749H73.4756Z" fill="white"/>
<path d="M66.2973 0.122192L65.7318 6.47319H63.6873L63.1436 0.122192H66.2973Z" fill="white"/>
<path d="M51.6602 5.84237L51.8995 6.97337C52.2185 6.55287 52.6752 6.18312 53.2697 5.86412C53.8787 5.54512 54.5457 5.38562 55.2707 5.38562C56.2422 5.38562 57.0977 5.53062 57.8372 5.82062C58.5767 6.09612 59.1857 6.49487 59.6642 7.01687C60.1572 7.52437 60.527 8.14787 60.7735 8.88737C61.02 9.61237 61.1432 10.4316 61.1432 11.3451V19.4579H57.772V11.6061C57.772 10.4606 57.569 9.61962 57.163 9.08312C56.7715 8.53212 56.0682 8.25662 55.0532 8.25662C54.0672 8.25662 53.2987 8.60462 52.7477 9.30062C52.2112 9.98212 51.9285 10.8666 51.8995 11.9541V19.4579H48.6152V5.84237H51.6602Z" fill="white"/>
<path d="M46.3466 1.2749V19.4579H43.3668L43.2146 18.7184C42.7941 19.0519 42.3301 19.3129 41.8226 19.5014C41.3296 19.6899 40.7858 19.7842 40.1913 19.7842C39.0893 19.7842 38.1396 19.6392 37.3421 19.3492C36.5446 19.0737 35.8848 18.6749 35.3628 18.1529C34.8553 17.6309 34.4783 17.0002 34.2318 16.2607C33.9853 15.5212 33.8621 14.6947 33.8621 13.7812V11.3017C33.8621 10.3882 33.9926 9.5689 34.2536 8.8439C34.5146 8.1044 34.8988 7.4809 35.4063 6.9734C35.9138 6.4514 36.5373 6.05265 37.2768 5.77715C38.0308 5.48715 38.8936 5.34215 39.8651 5.34215C40.5176 5.34215 41.1048 5.4219 41.6268 5.5814C42.1633 5.7409 42.6418 5.96565 43.0623 6.25565V1.2749H46.3466ZM40.0826 16.9132C40.5756 16.9132 41.0033 16.8479 41.3658 16.7174C41.7283 16.6014 42.0328 16.3984 42.2793 16.1084C42.5403 15.8039 42.7288 15.4124 42.8448 14.9339C42.9753 14.4554 43.0478 13.8609 43.0623 13.1504V11.9542C43.0623 10.8087 42.8158 9.9024 42.3228 9.2354C41.8443 8.5539 41.0976 8.21315 40.0826 8.21315C39.0821 8.21315 38.3498 8.48865 37.8858 9.03965C37.4218 9.57615 37.1898 10.4172 37.1898 11.5627V13.5637C37.1898 14.6947 37.4218 15.5357 37.8858 16.0867C38.3498 16.6377 39.0821 16.9132 40.0826 16.9132Z" fill="white"/>
<path d="M32.0445 19.4579H28.6733V6.0599H32.0445V19.4579ZM28.6733 4.3634V1.2749H32.0445V4.3634H28.6733Z" fill="white"/>
<path d="M26.2958 1.2749V19.4579H23.316L23.1638 18.7184C22.7433 19.0519 22.2793 19.3129 21.7718 19.5014C21.2788 19.6899 20.735 19.7842 20.1405 19.7842C19.0385 19.7842 18.0888 19.6392 17.2913 19.3492C16.4938 19.0737 15.834 18.6749 15.312 18.1529C14.8045 17.6309 14.4275 17.0002 14.181 16.2607C13.9345 15.5212 13.8113 14.6947 13.8113 13.7812V11.3017C13.8113 10.3882 13.9418 9.5689 14.2028 8.8439C14.4638 8.1044 14.848 7.4809 15.3555 6.9734C15.863 6.4514 16.4865 6.05265 17.226 5.77715C17.98 5.48715 18.8428 5.34215 19.8143 5.34215C20.4668 5.34215 21.054 5.4219 21.576 5.5814C22.1125 5.7409 22.591 5.96565 23.0115 6.25565V1.2749H26.2958ZM20.0318 16.9132C20.5248 16.9132 20.9525 16.8479 21.315 16.7174C21.6775 16.6014 21.982 16.3984 22.2285 16.1084C22.4895 15.8039 22.678 15.4124 22.794 14.9339C22.9245 14.4554 22.997 13.8609 23.0115 13.1504V11.9542C23.0115 10.8087 22.765 9.9024 22.272 9.2354C21.7935 8.5539 21.0468 8.21315 20.0318 8.21315C19.0313 8.21315 18.299 8.48865 17.835 9.03965C17.371 9.57615 17.139 10.4172 17.139 11.5627V13.5637C17.139 14.6947 17.371 15.5357 17.835 16.0867C18.299 16.6377 19.0313 16.9132 20.0318 16.9132Z" fill="white"/>
<path d="M0.0927734 19.4579V16.6739H1.63702V4.66791H0.0927734V1.88391H6.68302V4.66791H5.09527V16.6739H6.68302V19.4579H0.0927734Z" fill="white"/>
</svg>
