<svg width="654" height="60" viewBox="0 0 654 60" fill="none" xmlns="http://www.w3.org/2000/svg">
<path d="M31.176 44.28V2.744H39.368V15.8H44.808V2.424H53V44.92H44.808V23.608H39.368V44.28H31.176ZM0.2 36.984V16.44H17.48V9.848H0.2V3.064H25.8V23.032H8.52V30.2H27.976V36.984H0.2ZM5 59.32V41.4H13.704V52.152H54.28V59.32H5ZM65.1725 59.32V35.64H112.533V59.32H65.1725ZM61.9725 30.904V3.064H95.8925V9.976H70.6765V23.992H98.7085V30.904H61.9725ZM86.9325 20.536V13.112H103.829V2.424H112.533V33.4H103.829V20.536H86.9325ZM73.8765 52.408H103.829V42.552H73.8765V52.408ZM137.49 36.792V29.816C145.554 28.408 151.698 22.584 151.698 15.416V12.984H138.13V6.072H151.634V0.631996H160.786V6.072H173.586V12.984H160.722V15.416C160.722 22.456 165.906 27.384 173.906 29.304V36.28C166.802 34.872 160.274 31.48 156.178 27.064C151.954 32.12 145.234 35.32 137.49 36.792ZM142.61 59.32V40.12H151.314V52.152H191.25V59.32H142.61ZM181.266 44.28V2.424H189.97V44.28H181.266ZM197.983 39.544V32.184H240.799V11.384H202.143V3.96H249.503V32.184H254.943V39.544H231.007V59.576H221.919V39.544H197.983ZM258.795 34.04V27.832H315.755V34.04H258.795ZM262.955 59.32V44.92H302.763V42.744H262.955V36.664H311.595V50.744H271.787V53.24H312.875V59.32H262.955ZM262.955 25.336V10.936H302.763V8.76H262.955V2.68H311.595V16.76H271.787V19.256H312.875V25.336H262.955ZM339.113 59.96V52.984C349.801 52.664 357.929 47.736 358.825 43.192H339.753V36.28H387.113V43.192H367.977C368.873 47.736 377.065 52.664 387.753 52.984V59.96C377.833 59.448 369.065 56.632 363.433 51.32C357.801 56.632 349.033 59.448 339.113 59.96ZM335.913 33.592V26.616C343.977 25.336 349.993 19.704 349.993 13.112V12.664H336.553V5.752H349.929V0.695999H359.081V5.752H371.753V12.664H359.017V13.112C359.017 19.576 364.073 24.44 372.073 26.104V33.08C364.969 31.8 358.569 28.472 354.473 23.992C350.249 29.112 343.657 32.248 335.913 33.592ZM378.409 34.04V2.424H387.113V13.688H394.793V21.496H387.113V34.04H378.409ZM397.045 56.76V49.4H416.821V27.384H425.909V49.4H454.005V56.76H397.045ZM401.205 11.384V3.96H449.205V40.824H440.501V11.384H401.205ZM494.451 31.864H492.531C481.139 31.864 474.803 25.912 474.803 17.144C474.803 8.376 481.139 2.424 492.531 2.424H494.451C505.843 2.424 512.179 8.376 512.179 17.144C512.179 25.912 505.843 31.864 494.451 31.864ZM478.643 59.96V52.664C484.723 51.512 487.923 46.264 487.923 39.8V36.6H496.883V39.8C496.883 46.264 499.699 51.256 503.923 52.664C508.083 51.256 510.963 46.264 510.963 39.8V36.6H519.923V39.8C519.923 46.264 523.123 51.512 529.203 52.664V59.96C523.635 59.384 518.387 55.992 515.699 51.576C513.267 55.48 508.787 58.808 503.923 59.96C498.931 58.808 494.579 55.48 492.147 51.576C489.458 55.992 484.211 59.384 478.643 59.96ZM518.579 34.68V2.424H527.283V34.68H518.579ZM492.019 24.952H494.963C500.083 24.952 503.475 21.88 503.475 17.144C503.475 12.408 500.083 9.336 494.963 9.336H492.019C486.899 9.336 483.507 12.408 483.507 17.144C483.507 21.88 486.899 24.952 492.019 24.952ZM537.535 40.44V18.808C537.535 8.568 544.319 2.744 554.495 2.744C564.671 2.744 571.455 8.568 571.455 18.808V25.08H579.391V2.424H588.095V59.576H579.391V32.888H571.455V40.44C571.455 50.68 564.671 56.504 554.495 56.504C544.319 56.504 537.535 50.68 537.535 40.44ZM562.751 40.632V18.616C562.751 13.368 559.615 10.04 554.495 10.04C549.375 10.04 546.239 13.368 546.239 18.616V40.632C546.239 45.88 549.375 49.208 554.495 49.208C559.615 49.208 562.751 45.88 562.751 40.632ZM596.108 57.4V50.04H607.82V36.408C602.572 33.4 599.628 28.088 599.628 21.24C599.628 10.36 607.052 3.384 619.34 3.384H629.836C642.06 3.384 649.548 10.36 649.548 21.24C649.548 27.96 646.668 33.208 641.612 36.216V50.04H653.068V57.4H596.108ZM619.02 31.8H630.156C636.684 31.8 640.844 27.448 640.844 21.24C640.844 15.032 636.684 10.68 630.156 10.68H619.02C612.492 10.68 608.332 15.032 608.332 21.24C608.332 27.448 612.492 31.8 619.02 31.8ZM616.908 50.04H632.524V38.968C631.628 39.032 630.732 39.096 629.836 39.096H619.34C618.508 39.096 617.676 39.096 616.908 39.032V50.04Z" fill="white"/>
</svg>
