<svg width="266" height="31" viewBox="0 0 266 31" fill="none" xmlns="http://www.w3.org/2000/svg">
<path d="M265.187 1.12573V30.1187H261.077V1.12573H265.187ZM256.489 4.15247C256.489 12.9459 253.398 20.2419 243.044 25.1484L240.909 21.8987C248.396 18.3622 251.694 13.7743 252.347 7.3385H242.47V4.15247H256.489Z" fill="#EE7022"/>
<path d="M235.493 1.12573V12.468H239.762V15.8134H235.493V30.1187H231.478V1.12573H235.493ZM229.503 5.45874V8.7085H212.458V5.45874H219.021V1.57178H223.099V5.45874H229.503ZM221.06 10.3334C225.297 10.3334 228.452 13.2008 228.452 17.2471C228.452 21.2933 225.297 24.1608 221.06 24.1608C216.791 24.1608 213.636 21.2933 213.636 17.2471C213.636 13.2008 216.791 10.3334 221.06 10.3334ZM221.06 13.615C219.021 13.6469 217.523 15.0168 217.523 17.2471C217.523 19.5092 219.021 20.8473 221.06 20.8154C223.099 20.8473 224.565 19.5092 224.565 17.2471C224.565 15.0168 223.099 13.6469 221.06 13.615Z" fill="#EE7022"/>
<path d="M208.698 1.15759V21.9943H204.62V1.15759H208.698ZM209.463 26.3591V29.6089H189.263V19.8915H193.373V26.3591H209.463ZM192.8 3.00549C197.26 3.00549 200.733 6.06409 200.733 10.3015C200.733 14.6345 197.26 17.6613 192.8 17.6613C188.339 17.6613 184.867 14.6345 184.867 10.3015C184.867 6.06409 188.339 3.00549 192.8 3.00549ZM192.8 6.54199C190.538 6.51013 188.817 7.94385 188.849 10.3015C188.817 12.7229 190.538 14.1248 192.8 14.1248C194.998 14.1248 196.719 12.7229 196.719 10.3015C196.719 7.94385 194.998 6.51013 192.8 6.54199Z" fill="#EE7022"/>
<path d="M179.418 1.15759V9.44128H183.114V12.7866H179.418V20.8473H175.34V1.15759H179.418ZM155.906 17.1196C158.024 17.1196 160.446 17.1196 162.947 17.0559V15.431C159.792 14.985 157.817 13.4557 157.849 11.2255C157.817 8.54919 160.653 6.89246 164.954 6.89246C169.223 6.89246 172.027 8.54919 172.059 11.2255C172.027 13.4557 170.099 14.9691 166.993 15.3992V16.8966C169.382 16.801 171.756 16.6099 174.002 16.3231L174.289 19.1268C168.172 20.2101 161.449 20.2738 156.32 20.2738L155.906 17.1196ZM179.418 22.0261V30.1187H175.34V25.1484H159.601V22.0261H179.418ZM173.269 3.26038V6.22339H156.67V3.26038H162.947V0.90271H166.993V3.26038H173.269ZM164.954 9.60059C162.883 9.60059 161.704 10.1104 161.736 11.2255C161.704 12.2769 162.883 12.8822 164.954 12.8822C166.993 12.8822 168.14 12.2769 168.172 11.2255C168.14 10.1104 166.993 9.60059 164.954 9.60059Z" fill="#EE7022"/>
<path d="M147.048 23.428V26.7415H120.509V23.428H131.692V18.0754H123.312V2.97363H127.391V7.46594H140.039V2.97363H144.085V18.0754H135.738V23.428H147.048ZM127.391 14.8257H140.039V10.7157H127.391V14.8257Z" fill="#EE7022"/>
<path d="M116.749 1.12573V18.3303H112.703V11.4803H108.179V8.19873H112.703V1.12573H116.749ZM106.841 18.9675C113.021 18.9994 116.813 21.0385 116.845 24.575C116.813 28.0796 113.021 30.1505 106.841 30.1505C100.66 30.1505 96.8683 28.0796 96.8683 24.575C96.8683 21.0385 100.66 18.9994 106.841 18.9675ZM106.841 22.0898C102.985 22.0898 100.915 22.8864 100.915 24.575C100.915 26.2317 102.985 27.0601 106.841 27.0601C110.696 27.0601 112.798 26.2317 112.798 24.575C112.798 22.8864 110.696 22.0898 106.841 22.0898ZM109.039 2.87805V6.12781H103.272C103.368 9.505 105.407 12.9141 109.931 14.4115L107.924 17.5975C104.722 16.5621 102.523 14.4593 101.265 11.8308C99.9747 14.7938 97.6648 17.1833 94.2239 18.3622L92.1211 15.1443C96.8842 13.5513 99.0189 9.75989 99.1304 6.12781H93.2999V2.87805H109.039Z" fill="#EE7022"/>
<path d="M79.6 1.15759V10.0466H83.5188V13.3601H79.6V22.7908H75.5219V1.15759H79.6ZM73.8014 4.18433V7.40222H56.5968V4.18433H63.1919V1.09387H67.2382V4.18433H73.8014ZM65.1991 8.42175C69.4047 8.42175 72.3358 10.6838 72.3358 14.0292C72.3358 17.3745 69.4047 19.5729 65.1991 19.5729C60.9617 19.5729 57.9987 17.3745 57.9987 14.0292C57.9987 10.6838 60.9617 8.42175 65.1991 8.42175ZM65.1991 11.5122C63.2556 11.5441 61.9493 12.4362 61.9812 14.0292C61.9493 15.6222 63.2556 16.4824 65.1991 16.4824C67.1426 16.4824 68.4807 15.6222 68.4807 14.0292C68.4807 12.4362 67.1426 11.5441 65.1991 11.5122ZM80.6514 26.3591V29.6089H60.8024V21.134H64.8486V26.3591H80.6514Z" fill="#EE7022"/>
<path d="M42.3234 2.81433V11.8627H33.5618V14.9531C37.8788 14.9531 40.4277 14.8098 43.3748 14.2522L43.7571 17.502C40.3799 18.1073 37.3213 18.2029 31.7139 18.2029H29.5474V8.83594H38.2452V6.00037H29.4836V2.81433H42.3234ZM52.8373 1.15759V18.9994H48.791V14.5389H43.9801V11.321H48.791V8.38989H43.9801V5.172H48.791V1.15759H52.8373ZM52.8373 20.3057V30.1187H48.791V23.5554H32.8608V20.3057H52.8373Z" fill="#EE7022"/>
<path d="M24.4816 1.12573V16.7054H20.4034V1.12573H24.4816ZM9.09302 17.9799V20.688H20.4353V17.9799H24.4816V29.8H5.07861V17.9799H9.09302ZM9.09302 26.5184H20.4353V23.8422H9.09302V26.5184ZM8.58325 2.33643C13.1074 2.30457 16.5165 5.14014 16.5165 9.21826C16.5165 13.1689 13.1074 16.0045 8.58325 16.0045C4.05908 16.0045 0.650024 13.1689 0.650024 9.21826C0.650024 5.14014 4.05908 2.30457 8.58325 2.33643ZM8.58325 5.71362C6.25745 5.71362 4.60071 7.0199 4.63257 9.21826C4.60071 11.3848 6.25745 12.6592 8.58325 12.6592C10.8453 12.6592 12.5021 11.3848 12.5021 9.21826C12.5021 7.0199 10.8453 5.71362 8.58325 5.71362Z" fill="#EE7022"/>
</svg>
