<svg width="298" height="17" viewBox="0 0 298 17" fill="none" xmlns="http://www.w3.org/2000/svg">
<path d="M297.785 12.7175V14.1158H283.271V12.7175H286.74V8.57568C285.44 7.85883 284.652 6.71716 284.652 5.30115C284.652 2.80542 287.094 1.1593 290.493 1.1593C293.909 1.1593 296.352 2.80542 296.352 5.30115C296.352 6.69946 295.591 7.82343 294.316 8.54028V12.7175H297.785ZM290.493 2.50452C287.997 2.50452 286.28 3.58423 286.28 5.30115C286.28 7.00037 287.997 8.11548 290.493 8.11548C292.971 8.11548 294.723 7.00037 294.723 5.30115C294.723 3.58423 292.971 2.50452 290.493 2.50452ZM288.404 12.7175H292.617V9.17749C291.971 9.34564 291.254 9.42529 290.493 9.42529C289.75 9.42529 289.042 9.34564 288.404 9.19519V12.7175Z" fill="white"/>
<path d="M272.439 4.57544C272.439 7.10657 273.501 9.8147 275.625 11.1068L274.687 12.3989C273.2 11.5051 272.191 9.9209 271.66 8.08008C271.067 10.0979 269.978 11.8148 268.438 12.7529L267.394 11.4962C269.642 10.151 270.81 7.35437 270.81 4.64624V1.69031H272.439V4.57544ZM281.253 0.238892V16.0983H279.643V0.238892H281.253ZM277.961 0.539795V15.3195H276.368V7.21277H273.908V5.81445H276.368V0.539795H277.961Z" fill="white"/>
<path d="M266.403 9.17749V10.5404H259.96V16.0806H258.314V10.5404H251.942V9.17749H266.403ZM265.04 1.177V2.52222H260.137C260.164 4.48694 262.606 6.23926 265.606 6.64636L264.987 7.97388C262.385 7.56677 260.137 6.28351 259.181 4.46924C258.199 6.28351 255.96 7.56677 253.393 7.97388L252.756 6.64636C255.721 6.23926 258.164 4.48694 258.225 2.52222H253.287V1.177H265.04Z" fill="white"/>
<path d="M244.118 2.85852V4.22144H236.242V2.85852H239.357V0.699097H241.021V2.85852H244.118ZM240.189 5.17725C242.207 5.17725 243.623 6.68176 243.641 8.82349C243.623 10.9829 242.207 12.5051 240.189 12.5051C238.207 12.5051 236.737 10.9829 236.755 8.82349C236.737 6.68176 238.207 5.17725 240.189 5.17725ZM240.189 6.57556C239.038 6.57556 238.242 7.51367 238.242 8.82349C238.242 10.1687 239.038 11.0714 240.189 11.0714C241.322 11.0714 242.154 10.1687 242.154 8.82349C242.154 7.51367 241.322 6.57556 240.189 6.57556ZM249.853 0.238892V16.0983H248.26V8.22168H246.437V15.3549H244.844V0.592896H246.437V6.84106H248.26V0.238892H249.853Z" fill="white"/>
<path d="M233.764 0.256592V9.9386H232.082V0.256592H233.764ZM233.764 10.7528V16.0983H232.082V12.1334H223.02V10.7528H233.764ZM228.702 1.177V5.70825H223.091V7.74377C225.861 7.73492 227.905 7.63757 230.312 7.28357L230.525 8.64648C227.94 9.05359 225.763 9.12439 222.772 9.12439H221.444V4.39844H227.038V2.53992H221.409V1.177H228.702Z" fill="white"/>
<path d="M217.621 0.946899V2.20361C217.621 3.43378 217.621 4.82324 217.267 6.61096H219.391V7.97388H204.966V6.61096H215.586C215.718 5.95605 215.807 5.3631 215.869 4.80554L206.576 5.19495L206.364 3.88513L215.94 3.61963C215.957 3.15057 215.957 2.71692 215.957 2.29211H206.771V0.946899H217.621ZM217.727 9.30139V13.1423H208.329V14.576H218.294V15.9036H206.647V11.8856H216.064V10.5935H206.612V9.30139H217.727Z" fill="white"/>
<path d="M192.894 1.63721V9.03589H185.478V1.63721H192.894ZM187.124 3.00012V7.70837H191.248V3.00012H187.124ZM197.319 0.221191V4.96484H199.62V6.38086H197.319V11.8502H195.638V0.221191H197.319ZM197.992 14.399V15.762H187.265V10.7351H188.947V14.399H197.992Z" fill="white"/>
<path d="M183.672 6.73486V8.08008H169.193V6.73486H183.672ZM181.955 4.23914V5.58435H171.087V0.699097H181.796V2.06201H172.769V4.23914H181.955ZM181.831 9.33679V13.1777H172.592V14.5938H182.274V15.9213H170.946V11.9387H180.168V10.6289H170.928V9.33679H181.831Z" fill="white"/>
<path d="M168.025 8.54028V9.8855H161.724V12.806H160.06V9.8855H153.511V8.54028H168.025ZM166.415 14.399V15.762H155.317V11.4254H156.98V14.399H166.415ZM157.087 0.734497V2.66382H164.432V0.734497H166.114V7.14197H155.423V0.734497H157.087ZM157.087 5.79675H164.432V3.92053H157.087V5.79675Z" fill="white"/>
<path d="M146.59 0.256592V11.8679H144.909V0.256592H146.59ZM147.068 14.399V15.762H136.218V10.7705H137.917V14.399H147.068ZM139.209 2.69922C139.192 5.01794 140.678 7.14197 143.121 7.99158L142.254 9.33679C140.422 8.65533 139.068 7.31012 138.36 5.58435C137.661 7.42517 136.289 8.90314 134.43 9.62L133.528 8.29248C136.023 7.37207 137.492 5.08875 137.492 2.69922V1.1239H139.209V2.69922Z" fill="white"/>
<path d="M130.129 0.238892V6.66406H132.678V8.06238H130.129V16.0983H128.465V0.238892H130.129ZM127.085 2.71692V4.09753H117.686V2.71692H121.598V0.451294H123.279V2.71692H127.085ZM122.447 5.26575C124.713 5.26575 126.377 6.78796 126.394 8.94739C126.377 11.1245 124.713 12.629 122.447 12.6467C120.164 12.629 118.5 11.1245 118.5 8.94739C118.5 6.78796 120.164 5.26575 122.447 5.26575ZM122.447 6.64636C121.102 6.64636 120.093 7.58447 120.111 8.94739C120.093 10.328 121.102 11.2484 122.447 11.2307C123.792 11.2484 124.784 10.328 124.784 8.94739C124.784 7.58447 123.792 6.64636 122.447 6.64636Z" fill="white"/>
<path d="M104.906 0.504395C108.482 0.504395 110.57 1.46021 110.57 3.23022C110.57 5.00024 108.482 5.97375 104.906 5.97375C101.331 5.97375 99.2423 5.00024 99.2423 3.23022C99.2423 1.46021 101.331 0.504395 104.906 0.504395ZM104.906 1.74341C102.375 1.74341 100.977 2.29211 100.995 3.23022C100.977 4.20374 102.375 4.71704 104.906 4.71704C107.438 4.71704 108.836 4.20374 108.836 3.23022C108.836 2.29211 107.438 1.74341 104.906 1.74341ZM112.146 6.94727V8.29248H97.6847V6.94727H112.146ZM110.323 9.51379V13.2308H101.083V14.6469H110.765V15.939H99.437V12.0095H108.659V10.7705H99.4193V9.51379H110.323Z" fill="white"/>
<path d="M96.5165 8.89429V10.2572H82.0023V8.89429H88.4275V7.38977H83.8608V3.35413H93.0118V1.93811H83.8254V0.610596H94.6934V4.59314H85.5247V6.07996H95.012V7.38977H90.0913V8.89429H96.5165ZM94.7819 11.3723V15.9744H93.0826V12.7175H83.6307V11.3723H94.7819Z" fill="white"/>
<path d="M80.8341 7.69067V9.07129H66.3553V7.69067H80.8341ZM79.1526 4.94714V6.31006H68.1608V0.805298H79.0464V2.18591H69.8246V4.94714H79.1526ZM73.577 10.3103C76.9932 10.3103 79.0464 11.3546 79.0464 13.1954C79.0464 15.0363 76.9932 16.0806 73.577 16.0629C70.1432 16.0806 68.0723 15.0363 68.0723 13.1954C68.0723 11.3546 70.1432 10.3103 73.577 10.3103ZM73.577 11.6024C71.1521 11.6201 69.7715 12.1865 69.7715 13.1954C69.7715 14.2043 71.1521 14.7708 73.577 14.7708C75.9666 14.7708 77.3649 14.2043 77.3649 13.1954C77.3649 12.1865 75.9666 11.6201 73.577 11.6024Z" fill="white"/>
<path d="M63.9127 0.256592V11.8679H62.2312V5.90295H59.2045V4.54004H62.2312V0.256592H63.9127ZM64.3375 14.399V15.762H53.6112V10.8236H55.2927V14.399H64.3375ZM56.3724 3.46033C56.3724 5.44275 57.8062 7.42517 60.1957 8.22168L59.3284 9.56689C57.5495 8.93854 56.2308 7.66412 55.5405 6.09766C54.8502 7.84113 53.4608 9.24829 51.5757 9.9209L50.7084 8.55798C53.151 7.72607 54.6555 5.63745 54.6555 3.46033V2.84082H51.2217V1.46021H59.7709V2.84082H56.3724V3.46033Z" fill="white"/>
<path d="M40.5308 4.27454C40.5131 7.08887 42.1415 9.9563 44.5133 11.1068L43.469 12.452C41.7432 11.5582 40.4069 9.7793 39.7166 7.65527C38.9997 9.9209 37.6102 11.8148 35.8048 12.7529L34.7605 11.39C37.2031 10.2218 38.8492 7.17737 38.8492 4.27454V1.56641H40.5308V4.27454ZM47.3807 0.238892V6.55786H49.9296V7.99158H47.3807V16.0983H45.6992V0.238892H47.3807Z" fill="white"/>
<path d="M28.1052 0.238892V16.1337H26.4237V0.238892H28.1052ZM23.2554 1.67261V7.46057H17.5559V10.9298C20.1224 10.921 22.3704 10.8059 25.0254 10.3634L25.1847 11.744C22.3704 12.2219 19.9808 12.3281 17.1842 12.3281H15.839V6.11536H21.5385V3.03552H15.8213V1.67261H23.2554Z" fill="white"/>
<path d="M7.5907 1.76111V12.1865H0.156616V1.76111H7.5907ZM1.82043 3.08862V10.8236H5.96228V3.08862H1.82043ZM12.4052 0.238892V16.1337H10.7236V0.238892H12.4052Z" fill="white"/>
</svg>
