<svg width="307" height="167" viewBox="0 0 307 167" fill="none" xmlns="http://www.w3.org/2000/svg">
<path d="M252.285 144.757H238.896C238.412 139.837 237.283 129.351 237.283 126.044V94.1045H253.898V126.044C253.898 129.432 252.769 139.837 252.285 144.757ZM253.656 163.792H237.525V150.161H253.656V163.792Z" fill="white"/>
<path d="M229.847 163.307H158.709V149.757H171.856V138.143C164.677 134.11 161.209 126.528 161.209 118.14C161.209 105.8 168.791 95.0723 184.68 95.0723H203.876C219.765 95.0723 227.347 105.8 227.347 118.14C227.347 126.528 223.879 134.11 216.7 138.143V149.757H229.847V163.307ZM187.019 127.657H201.537C208.07 127.657 211.538 123.705 211.538 118.14C211.538 112.575 208.07 108.623 201.537 108.623H187.019C180.486 108.623 177.018 112.575 177.018 118.14C177.018 123.705 180.486 127.657 187.019 127.657ZM200.892 149.757V141.208H187.664V149.757H200.892Z" fill="white"/>
<path d="M149.901 165.889H134.093V136.046H126.753V144.111C126.753 156.21 116.913 163.146 104.976 163.227C93.0387 163.308 83.1986 156.129 83.1986 144.111V113.785C83.1986 101.767 93.0387 94.5885 104.976 94.6691C116.913 94.7498 126.753 101.686 126.753 113.785V121.608H134.093V94.6691H149.901V165.889ZM110.944 143.708V114.188C110.944 110.881 108.283 108.623 104.976 108.623C101.669 108.623 99.0072 110.881 99.0072 114.188V143.708C99.0072 147.015 101.669 149.273 104.976 149.273C108.283 149.273 110.944 147.015 110.944 143.708Z" fill="white"/>
<path d="M75.6008 137.74H60.7601V122.979H57.6951V137.578H43.0157V94.9111H57.6951V109.429H60.7601V94.6691H75.6008V137.74ZM81.4887 157.339L74.3103 166.856C69.3096 163.953 63.825 160.323 59.5502 156.855C55.3561 160.485 49.7102 163.63 44.9515 166.856C40.1927 163.63 34.5468 160.485 30.3527 156.855C26.0779 160.323 20.5933 163.953 15.5926 166.856L8.41417 157.339C13.0116 154.193 17.7703 151.048 21.2385 147.822C22.529 146.692 22.529 145.805 22.529 144.273V140.079H38.1763V144.273C38.1763 145.805 38.1763 146.692 39.4668 147.822C41.08 149.354 42.9351 150.806 44.9515 152.258C46.9679 150.806 48.823 149.354 50.4361 147.822C51.7266 146.692 51.7266 145.805 51.7266 144.273V140.079H67.3739V144.273C67.3739 145.805 67.3739 146.692 68.6644 147.822C72.1326 151.048 76.8913 154.193 81.4887 157.339ZM25.8359 136.61H19.8674C11.2371 136.61 5.67186 131.045 5.67186 123.463C5.67186 115.882 11.2371 110.316 19.8674 110.316H25.8359C34.4661 110.316 40.0314 115.882 40.0314 123.463C40.0314 131.045 34.4661 136.61 25.8359 136.61ZM40.7573 108.542H5.02661V98.4599H14.8667V92.0074H30.9173V98.4599H40.7573V108.542ZM22.2064 126.286H23.4969C24.9487 126.286 25.9972 124.996 25.9972 123.463C25.9972 121.931 24.9487 120.64 23.4969 120.64H22.2064C20.7546 120.64 19.7061 121.931 19.7061 123.463C19.7061 124.996 20.7546 126.286 22.2064 126.286Z" fill="white"/>
<path d="M306.487 47.4416H235.348V37.1176H261.884V34.0527H238.816V12.7595H286.968V10.5817H238.816V0.661011H302.776V21.793H254.625V23.9707H303.664V34.0527H279.951V37.1176H306.487V47.4416ZM303.018 72.0418H287.129V60.266H238.655V49.942H303.018V72.0418Z" fill="white"/>
<path d="M227.024 28.0035H162.419V0.661011H226.137V11.9529H178.227V16.7116H227.024V28.0035ZM229.847 42.8442H158.709V31.5524H229.847V42.8442ZM211.861 72.929H176.453C165.322 72.929 160.564 66.7185 160.564 59.3788C160.564 51.9584 165.564 45.7479 176.695 45.7479H212.103C223.234 45.7479 228.234 51.9584 228.234 59.3788C228.234 66.7185 222.992 72.929 211.861 72.929ZM208.554 57.2817H180.324C177.743 57.2817 176.292 58.0076 176.292 59.3788C176.292 60.6693 177.824 61.3952 180.324 61.3952H208.554C211.054 61.3952 212.587 60.6693 212.587 59.3788C212.587 58.0076 211.135 57.2817 208.554 57.2817Z" fill="white"/>
<path d="M150.708 51.4745H134.899V26.3097H124.091V14.5339H113.767V17.0343C113.767 18.8087 114.09 20.4218 115.542 21.793C119.816 25.7451 124.172 28.8907 129.334 32.6009L121.188 43.6508C114.977 39.4567 110.38 36.0691 105.46 32.117C100.217 36.2304 94.3291 40.1826 88.0379 43.8928L80.2949 32.5203C85.9409 28.8907 90.0543 26.0678 94.3291 22.3576C96.1842 20.7444 96.8295 19.212 96.8295 16.9536V14.5339H83.8438V1.22563H126.35V12.7595H134.899V0.419067H150.708V51.4745ZM151.111 71.6385H89.7317V45.1026H105.54V58.4109H151.111V71.6385Z" fill="white"/>
<path d="M52.6137 57.685L41.6445 67.2024C36.0792 60.3467 31.1592 52.765 27.207 45.9092C23.1742 52.765 18.0929 60.5886 12.6082 67.4444L0.913086 58.4109C7.93018 49.0548 13.2535 39.2147 17.2056 30.4232C18.3348 28.0035 18.7381 24.4546 18.7381 21.309V1.22563H35.6759V21.309C35.6759 24.4546 36.0792 28.0035 37.2084 30.4232C41.1606 39.2147 45.8386 48.1676 52.6137 57.685ZM69.2289 71.6385H53.4203V0.419067H69.2289V25.2612H78.9077V39.6987H69.2289V71.6385Z" fill="white"/>
</svg>
