<svg width="598" height="60" viewBox="0 0 598 60" fill="none" xmlns="http://www.w3.org/2000/svg">
<path d="M31.5198 44.28V2.744H39.7118V15.8H45.1518V2.424H53.3438V44.92H45.1518V23.608H39.7118V44.28H31.5198ZM0.54375 36.984V16.44H17.8238V9.848H0.54375V3.064H26.1438V23.032H8.86375V30.2H28.3198V36.984H0.54375ZM5.34375 59.32V41.4H14.0478V52.152H54.6238V59.32H5.34375ZM65.5163 59.32V35.64H112.876V59.32H65.5163ZM62.3163 30.904V3.064H96.2363V9.976H71.0203V23.992H99.0523V30.904H62.3163ZM87.2763 20.536V13.112H104.172V2.424H112.876V33.4H104.172V20.536H87.2763ZM74.2203 52.408H104.172V42.552H74.2203V52.408ZM137.834 36.792V29.816C145.898 28.408 152.042 22.584 152.042 15.416V12.984H138.474V6.072H151.978V0.631996H161.13V6.072H173.93V12.984H161.066V15.416C161.066 22.456 166.25 27.384 174.25 29.304V36.28C167.146 34.872 160.618 31.48 156.522 27.064C152.298 32.12 145.578 35.32 137.834 36.792ZM142.954 59.32V40.12H151.658V52.152H191.594V59.32H142.954ZM181.61 44.28V2.424H190.314V44.28H181.61ZM198.326 39.544V32.184H241.142V11.384H202.486V3.96H249.846V32.184H255.286V39.544H231.35V59.576H222.262V39.544H198.326ZM259.139 34.04V27.832H316.099V34.04H259.139ZM263.299 59.32V44.92H303.107V42.744H263.299V36.664H311.939V50.744H272.131V53.24H313.219V59.32H263.299ZM263.299 25.336V10.936H303.107V8.76H263.299V2.68H311.939V16.76H272.131V19.256H313.219V25.336H263.299ZM339.456 59.96V52.984C350.144 52.664 358.272 47.736 359.168 43.192H340.096V36.28H387.456V43.192H368.32C369.216 47.736 377.408 52.664 388.096 52.984V59.96C378.176 59.448 369.408 56.632 363.776 51.32C358.144 56.632 349.376 59.448 339.456 59.96ZM336.256 33.592V26.616C344.32 25.336 350.336 19.704 350.336 13.112V12.664H336.896V5.752H350.272V0.695999H359.424V5.752H372.096V12.664H359.36V13.112C359.36 19.576 364.416 24.44 372.416 26.104V33.08C365.312 31.8 358.912 28.472 354.816 23.992C350.592 29.112 344 32.248 336.256 33.592ZM378.752 34.04V2.424H387.456V13.688H395.136V21.496H387.456V34.04H378.752ZM416.461 31.864H414.797C403.405 31.864 397.069 25.912 397.069 17.144C397.069 8.376 403.405 2.424 414.797 2.424H416.461C427.853 2.424 434.189 8.376 434.189 17.144C434.189 25.912 427.853 31.864 416.461 31.864ZM439.565 34.68V2.424H448.269V12.6H455.949V20.408H448.269V34.68H439.565ZM399.629 59.96V52.664C405.709 51.512 408.909 46.264 408.909 39.8V36.6H417.869V39.8C417.869 46.264 420.685 51.256 424.909 52.664V59.96C419.917 58.808 415.565 55.48 413.133 51.576C410.445 55.992 405.197 59.384 399.629 59.96ZM424.909 59.96V52.664C429.069 51.256 431.949 46.264 431.949 39.8V36.6H440.909V39.8C440.909 46.264 444.109 51.512 450.189 52.664V59.96C444.621 59.384 439.373 55.992 436.685 51.576C434.253 55.48 429.773 58.808 424.909 59.96ZM414.285 24.952H416.973C422.093 24.952 425.485 21.88 425.485 17.144C425.485 12.408 422.093 9.336 416.973 9.336H414.285C409.165 9.336 405.773 12.408 405.773 17.144C405.773 21.88 409.165 24.952 414.285 24.952ZM460.441 40.44V18.808C460.441 8.568 467.225 2.744 477.401 2.744C487.577 2.744 494.361 8.568 494.361 18.808V25.08H502.297V2.424H511.001V59.576H502.297V32.888H494.361V40.44C494.361 50.68 487.577 56.504 477.401 56.504C467.225 56.504 460.441 50.68 460.441 40.44ZM485.657 40.632V18.616C485.657 13.368 482.521 10.04 477.401 10.04C472.281 10.04 469.145 13.368 469.145 18.616V40.632C469.145 45.88 472.281 49.208 477.401 49.208C482.521 49.208 485.657 45.88 485.657 40.632ZM519.014 57.4V50.04H530.726V36.408C525.478 33.4 522.534 28.088 522.534 21.24C522.534 10.36 529.958 3.384 542.246 3.384H552.742C564.966 3.384 572.454 10.36 572.454 21.24C572.454 27.96 569.574 33.208 564.518 36.216V50.04H575.974V57.4H519.014ZM541.926 31.8H553.062C559.59 31.8 563.75 27.448 563.75 21.24C563.75 15.032 559.59 10.68 553.062 10.68H541.926C535.398 10.68 531.238 15.032 531.238 21.24C531.238 27.448 535.398 31.8 541.926 31.8ZM539.814 50.04H555.43V38.968C554.534 39.032 553.638 39.096 552.742 39.096H542.246C541.414 39.096 540.582 39.096 539.814 39.032V50.04ZM585.586 52.152C585.586 48.824 588.018 46.392 591.346 46.392C594.674 46.392 597.106 48.824 597.106 52.152C597.106 55.48 594.674 57.912 591.346 57.912C588.018 57.912 585.586 55.48 585.586 52.152ZM587.314 40.504L586.418 4.92H596.274L595.378 40.504H587.314Z" fill="white"/>
</svg>
