<svg width="284" height="17" viewBox="0 0 284 17" fill="none" xmlns="http://www.w3.org/2000/svg">
<path d="M283.089 12.7175V14.1158H268.575V12.7175H272.045V8.57568C270.744 7.85883 269.956 6.71716 269.956 5.30115C269.956 2.80542 272.399 1.1593 275.797 1.1593C279.213 1.1593 281.656 2.80542 281.656 5.30115C281.656 6.69946 280.895 7.82343 279.62 8.54028V12.7175H283.089ZM275.797 2.50452C273.301 2.50452 271.584 3.58423 271.584 5.30115C271.584 7.00037 273.301 8.11548 275.797 8.11548C278.275 8.11548 280.027 7.00037 280.027 5.30115C280.027 3.58423 278.275 2.50452 275.797 2.50452ZM273.708 12.7175H277.921V9.17749C277.275 9.34564 276.558 9.42529 275.797 9.42529C275.054 9.42529 274.346 9.34564 273.708 9.19519V12.7175Z" fill="white"/>
<path d="M257.743 4.57544C257.743 7.10657 258.805 9.8147 260.929 11.1068L259.991 12.3989C258.504 11.5051 257.495 9.9209 256.964 8.08008C256.371 10.0979 255.282 11.8148 253.743 12.7529L252.698 11.4962C254.946 10.151 256.114 7.35437 256.114 4.64624V1.69031H257.743V4.57544ZM266.557 0.238892V16.0983H264.947V0.238892H266.557ZM263.265 0.539795V15.3195H261.672V7.21277H259.212V5.81445H261.672V0.539795H263.265Z" fill="white"/>
<path d="M251.76 12.7352V14.1335H237.246V12.7352H243.636V9.47839H238.91V1.3186H240.591V4.04443H248.379V1.3186H250.043V9.47839H245.3V12.7352H251.76ZM240.591 8.11548H248.379V5.40735H240.591V8.11548Z" fill="white"/>
<path d="M229.422 2.85852V4.22144H221.546V2.85852H224.661V0.699097H226.325V2.85852H229.422ZM225.493 5.17725C227.511 5.17725 228.927 6.68176 228.945 8.82349C228.927 10.9829 227.511 12.5051 225.493 12.5051C223.511 12.5051 222.042 10.9829 222.059 8.82349C222.042 6.68176 223.511 5.17725 225.493 5.17725ZM225.493 6.57556C224.343 6.57556 223.546 7.51367 223.546 8.82349C223.546 10.1687 224.343 11.0714 225.493 11.0714C226.626 11.0714 227.458 10.1687 227.458 8.82349C227.458 7.51367 226.626 6.57556 225.493 6.57556ZM235.157 0.238892V16.0983H233.564V8.22168H231.741V15.3549H230.148V0.592896H231.741V6.84106H233.564V0.238892H235.157Z" fill="white"/>
<path d="M211.457 3.08862C211.457 5.10645 212.855 7.03577 215.28 7.84998L214.43 9.15979C212.634 8.54028 211.315 7.30127 210.625 5.74365C209.935 7.46057 208.563 8.80579 206.695 9.46069L205.793 8.15088C208.271 7.30127 209.758 5.26575 209.775 3.07092V2.64612H206.288V1.2832H214.873V2.64612H211.457V3.08862ZM218.378 0.238892V4.30994H220.679V5.72595H218.378V9.797H216.696V0.238892H218.378ZM218.378 10.5758V16.0983H216.696V11.9387H207.899V10.5758H218.378Z" fill="white"/>
<path d="M196.075 4.27454C196.058 7.17737 197.81 10.0802 200.27 11.1776L199.261 12.5051C197.438 11.6378 195.996 9.85895 195.261 7.69067C194.518 10.0094 193.057 11.9299 191.155 12.8591L190.128 11.4431C192.624 10.328 194.376 7.30127 194.376 4.27454V1.56641H196.075V4.27454ZM203.385 0.238892V16.1337H201.704V0.238892H203.385Z" fill="white"/>
<path d="M177.384 0.504395C180.959 0.504395 183.048 1.46021 183.048 3.23022C183.048 5.00024 180.959 5.97375 177.384 5.97375C173.808 5.97375 171.72 5.00024 171.72 3.23022C171.72 1.46021 173.808 0.504395 177.384 0.504395ZM177.384 1.74341C174.853 1.74341 173.454 2.29211 173.472 3.23022C173.454 4.20374 174.853 4.71704 177.384 4.71704C179.915 4.71704 181.313 4.20374 181.313 3.23022C181.313 2.29211 179.915 1.74341 177.384 1.74341ZM184.623 6.94727V8.29248H170.162V6.94727H184.623ZM182.8 9.51379V13.2308H173.561V14.6469H183.243V15.939H171.915V12.0095H181.136V10.7705H171.897V9.51379H182.8Z" fill="white"/>
<path d="M160.392 3.53113C160.392 5.42505 161.949 7.19507 164.41 7.86768L163.613 9.17749C161.755 8.66418 160.339 7.51367 159.595 6.00916C158.887 7.66412 157.489 8.96509 155.577 9.56689L154.745 8.23938C157.188 7.49597 158.71 5.58435 158.71 3.53113V3.44263H155.188V2.09741H158.71V0.238892H160.409V2.09741H163.896V3.44263H160.392V3.53113ZM167.649 0.256592V9.9209H165.967V0.256592H167.649ZM162.321 10.2218C165.649 10.2218 167.702 11.3015 167.702 13.1423C167.702 15.0009 165.649 16.0806 162.321 16.0629C158.976 16.0806 156.922 15.0009 156.922 13.1423C156.922 11.3015 158.976 10.2218 162.321 10.2218ZM162.321 11.5493C159.967 11.5493 158.622 12.1334 158.622 13.1423C158.622 14.1866 159.967 14.7708 162.321 14.7708C164.675 14.7708 166.038 14.1866 166.038 13.1423C166.038 12.1334 164.675 11.5493 162.321 11.5493Z" fill="white"/>
<path d="M152.48 0.238892V16.0983H150.869V7.83228H148.904V15.3195H147.311V0.539795H148.904V6.45166H150.869V0.238892H152.48ZM145.524 2.02661V11.921H139.364V2.02661H145.524ZM140.957 3.35413V10.5758H143.948V3.35413H140.957Z" fill="white"/>
<path d="M131.363 1.2301V2.62842C131.363 4.13293 131.363 5.76135 130.921 8.02698H133.204V9.40759H126.779V16.116H125.08V9.40759H118.743V8.02698H129.222C129.7 5.7702 129.7 4.10638 129.7 2.62842V2.61072H120.513V1.2301H131.363Z" fill="white"/>
<path d="M116.23 0.256592V11.9387H114.548V0.256592H116.23ZM116.708 14.399V15.762H105.857V10.859H107.557V14.399H116.708ZM108.973 3.93823C108.973 5.92065 110.495 7.76147 112.955 8.48718L112.141 9.8147C110.282 9.23944 108.884 8.04468 108.176 6.50476C107.459 8.17743 106.061 9.47839 104.176 10.0802L103.344 8.77039C105.804 7.99158 107.291 6.04456 107.291 3.93823V3.61963H103.769V2.27441H107.291V0.309692H108.99V2.27441H112.477V3.61963H108.973V3.93823Z" fill="white"/>
<path d="M90.83 2.85852V4.22144H82.9534V2.85852H86.0686V0.699097H87.7324V2.85852H90.83ZM86.9005 5.17725C88.9183 5.17725 90.3344 6.68176 90.3521 8.82349C90.3344 10.9829 88.9183 12.5051 86.9005 12.5051C84.9181 12.5051 83.449 10.9829 83.4667 8.82349C83.449 6.68176 84.9181 5.17725 86.9005 5.17725ZM86.9005 6.57556C85.75 6.57556 84.9535 7.51367 84.9535 8.82349C84.9535 10.1687 85.75 11.0714 86.9005 11.0714C88.0333 11.0714 88.8652 10.1687 88.8652 8.82349C88.8652 7.51367 88.0333 6.57556 86.9005 6.57556ZM96.5648 0.238892V16.0983H94.9718V8.22168H93.1487V15.3549H91.5557V0.592896H93.1487V6.84106H94.9718V0.238892H96.5648Z" fill="white"/>
<path d="M81.8206 8.89429V10.2572H67.3064V8.89429H73.7316V7.38977H69.1649V3.35413H78.3159V1.93811H69.1295V0.610596H79.9974V4.59314H70.8287V6.07996H80.316V7.38977H75.3954V8.89429H81.8206ZM80.0859 11.3723V15.9744H78.3867V12.7175H68.9348V11.3723H80.0859Z" fill="white"/>
<path d="M66.1382 7.69067V9.07129H51.6594V7.69067H66.1382ZM64.4567 4.94714V6.31006H53.4648V0.805298H64.3505V2.18591H55.1287V4.94714H64.4567ZM58.8811 10.3103C62.2972 10.3103 64.3505 11.3546 64.3505 13.1954C64.3505 15.0363 62.2972 16.0806 58.8811 16.0629C55.4473 16.0806 53.3763 15.0363 53.3763 13.1954C53.3763 11.3546 55.4473 10.3103 58.8811 10.3103ZM58.8811 11.6024C56.4562 11.6201 55.0756 12.1865 55.0756 13.1954C55.0756 14.2043 56.4562 14.7708 58.8811 14.7708C61.2706 14.7708 62.6689 14.2043 62.6689 13.1954C62.6689 12.1865 61.2706 11.6201 58.8811 11.6024Z" fill="white"/>
<path d="M46.0662 7.51367V8.80579H31.552V7.51367H46.0662ZM44.2784 9.9209V13.4078H34.9681V14.7177H44.774V15.9036H33.2866V12.2927H42.6146V11.1245H33.2689V9.9209H44.2784ZM44.243 0.645996V4.07983H35.0743V5.28345H44.5085V6.46936H33.4105V2.96472H42.5615V1.83191H33.3751V0.645996H44.243Z" fill="white"/>
<path d="M30.4192 12.7352V14.1335H15.905V12.7352H22.2948V9.47839H17.5688V1.3186H19.2504V4.04443H27.0385V1.3186H28.7023V9.47839H23.9586V12.7352H30.4192ZM19.2504 8.11548H27.0385V5.40735H19.2504V8.11548Z" fill="white"/>
<path d="M13.4624 0.238892V9.6731H11.7809V5.65515H8.82495V4.27454H11.7809V0.238892H13.4624ZM8.15234 10.1156C11.48 10.1156 13.5155 11.213 13.5155 13.1069C13.5155 15.0009 11.48 16.0806 8.15234 16.0983C4.82471 16.0806 2.77148 15.0009 2.78918 13.1069C2.77148 11.213 4.82471 10.1156 8.15234 10.1156ZM8.15234 11.4254C5.83362 11.4254 4.453 12.0272 4.453 13.1069C4.453 14.1689 5.83362 14.7885 8.15234 14.7708C10.4711 14.7885 11.8517 14.1689 11.8517 13.1069C11.8517 12.0272 10.4711 11.4254 8.15234 11.4254ZM5.92212 3.03552C5.92212 5.05334 7.35583 7.00037 9.74536 7.81458L8.87805 9.14209C7.09918 8.52258 5.78937 7.25702 5.10791 5.69055C4.40875 7.46942 3.01929 8.89429 1.12537 9.58459L0.240356 8.23938C2.70068 7.38977 4.2052 5.24805 4.2052 3.05322V2.69922H0.771362V1.3363H9.32056V2.69922H5.92212V3.03552Z" fill="white"/>
</svg>
