<svg width="331" height="167" viewBox="0 0 331 167" fill="none" xmlns="http://www.w3.org/2000/svg">
<path d="M328.956 144.757H315.567C315.083 139.837 313.954 129.351 313.954 126.044V94.1045H330.569V126.044C330.569 129.432 329.44 139.837 328.956 144.757ZM330.327 163.792H314.196V150.161H330.327V163.792Z" fill="white"/>
<path d="M306.518 163.307H235.379V149.757H248.526V138.143C241.348 134.11 237.879 126.528 237.879 118.14C237.879 105.8 245.461 95.0723 261.35 95.0723H280.547C296.436 95.0723 304.018 105.8 304.018 118.14C304.018 126.528 300.549 134.11 293.371 138.143V149.757H306.518V163.307ZM263.689 127.657H278.207C284.741 127.657 288.209 123.705 288.209 118.14C288.209 112.575 284.741 108.623 278.207 108.623H263.689C257.156 108.623 253.688 112.575 253.688 118.14C253.688 123.705 257.156 127.657 263.689 127.657ZM277.562 149.757V141.208H264.335V149.757H277.562Z" fill="white"/>
<path d="M226.571 165.889H210.762V136.046H203.423V144.111C203.423 156.21 193.582 163.146 181.645 163.227C169.708 163.308 159.868 156.129 159.868 144.111V113.785C159.868 101.767 169.708 94.5885 181.645 94.6691C193.582 94.7498 203.423 101.686 203.423 113.785V121.608H210.762V94.6691H226.571V165.889ZM187.614 143.708V114.188C187.614 110.881 184.952 108.623 181.645 108.623C178.338 108.623 175.677 110.881 175.677 114.188V143.708C175.677 147.015 178.338 149.273 181.645 149.273C184.952 149.273 187.614 147.015 187.614 143.708Z" fill="white"/>
<path d="M152.271 137.74H137.43V122.979H134.366V137.578H119.686V94.9111H134.366V109.429H137.43V94.6691H152.271V137.74ZM158.159 157.339L150.981 166.856C145.98 163.953 140.495 160.323 136.221 156.855C132.027 160.485 126.381 163.63 121.622 166.856C116.863 163.63 111.217 160.485 107.023 156.855C102.748 160.323 97.2637 163.953 92.263 166.856L85.0846 157.339C89.682 154.193 94.4407 151.048 97.9089 147.822C99.1994 146.692 99.1994 145.805 99.1994 144.273V140.079H114.847V144.273C114.847 145.805 114.847 146.692 116.137 147.822C117.75 149.354 119.605 150.806 121.622 152.258C123.638 150.806 125.493 149.354 127.106 147.822C128.397 146.692 128.397 145.805 128.397 144.273V140.079H144.044V144.273C144.044 145.805 144.044 146.692 145.335 147.822C148.803 151.048 153.562 154.193 158.159 157.339ZM102.506 136.61H96.5378C87.9076 136.61 82.3423 131.045 82.3423 123.463C82.3423 115.882 87.9076 110.316 96.5378 110.316H102.506C111.137 110.316 116.702 115.882 116.702 123.463C116.702 131.045 111.137 136.61 102.506 136.61ZM117.428 108.542H81.697V98.4599H91.5371V92.0074H107.588V98.4599H117.428V108.542ZM98.8768 126.286H100.167C101.619 126.286 102.668 124.996 102.668 123.463C102.668 121.931 101.619 120.64 100.167 120.64H98.8768C97.425 120.64 96.3765 121.931 96.3765 123.463C96.3765 124.996 97.425 126.286 98.8768 126.286Z" fill="white"/>
<path d="M50.2255 114.752C50.2255 127.98 40.1434 135.481 27.3191 135.481C14.4948 135.481 4.41272 127.98 4.41272 114.752C4.41272 101.525 14.4948 94.0238 27.3191 94.0238C40.1434 94.0238 50.2255 101.525 50.2255 114.752ZM72.0833 165.889H10.7039V139.353H26.5125V152.661H72.0833V165.889ZM70.8735 145.724H55.0648V94.6691H70.8735V108.865H79.1811V122.415H70.8735V145.724ZM27.3191 122.092C31.3519 122.092 34.4168 119.189 34.4168 114.752C34.4168 110.316 31.2713 107.413 27.3191 107.413C23.3669 107.413 20.2213 110.316 20.2213 114.752C20.2213 119.189 23.3669 122.092 27.3191 122.092Z" fill="white"/>
<path d="M306.518 47.4416H235.379V37.1176H261.915V34.0527H238.847V12.7595H286.999V10.5817H238.847V0.661011H302.808V21.793H254.656V23.9707H303.695V34.0527H279.982V37.1176H306.518V47.4416ZM303.05 72.0418H287.16V60.266H238.686V49.942H303.05V72.0418Z" fill="white"/>
<path d="M227.056 28.0035H162.45V0.661011H226.168V11.9529H178.259V16.7116H227.056V28.0035ZM229.879 42.8442H158.74V31.5524H229.879V42.8442ZM211.892 72.929H176.484C165.354 72.929 160.595 66.7185 160.595 59.3788C160.595 51.9584 165.596 45.7479 176.726 45.7479H212.134C223.265 45.7479 228.266 51.9584 228.266 59.3788C228.266 66.7185 223.023 72.929 211.892 72.929ZM208.585 57.2817H180.356C177.775 57.2817 176.323 58.0076 176.323 59.3788C176.323 60.6693 177.855 61.3952 180.356 61.3952H208.585C211.086 61.3952 212.618 60.6693 212.618 59.3788C212.618 58.0076 211.166 57.2817 208.585 57.2817Z" fill="white"/>
<path d="M150.739 51.4745H134.93V26.3097H124.123V14.5339H113.799V17.0343C113.799 18.8087 114.121 20.4218 115.573 21.793C119.848 25.7451 124.203 28.8907 129.365 32.6009L121.219 43.6508C115.008 39.4567 110.411 36.0691 105.491 32.117C100.248 36.2304 94.3604 40.1826 88.0692 43.8928L80.3262 32.5203C85.9721 28.8907 90.0856 26.0678 94.3604 22.3576C96.2155 20.7444 96.8607 19.212 96.8607 16.9536V14.5339H83.875V1.22563H126.381V12.7595H134.93V0.419067H150.739V51.4745ZM151.142 71.6385H89.763V45.1026H105.572V58.4109H151.142V71.6385Z" fill="white"/>
<path d="M52.645 57.685L41.6757 67.2024C36.1105 60.3467 31.1904 52.765 27.2383 45.9092C23.2055 52.765 18.1241 60.5886 12.6395 67.4444L0.944336 58.4109C7.96143 49.0548 13.2847 39.2147 17.2369 30.4232C18.3661 28.0035 18.7694 24.4546 18.7694 21.309V1.22563H35.7072V21.309C35.7072 24.4546 36.1105 28.0035 37.2397 30.4232C41.1918 39.2147 45.8699 48.1676 52.645 57.685ZM69.2602 71.6385H53.4516V0.419067H69.2602V25.2612H78.9389V39.6987H69.2602V71.6385Z" fill="white"/>
</svg>
