<svg width="174" height="30" viewBox="0 0 174 30" fill="none" xmlns="http://www.w3.org/2000/svg">
<path d="M173.547 0.125732V29.1187H169.437V0.125732H173.547ZM164.849 3.15247C164.849 11.9459 161.759 19.2419 151.404 24.1484L149.269 20.8987C156.757 17.3622 160.054 12.7743 160.707 6.3385H150.831V3.15247H164.849Z" fill="black"/>
<path d="M143.853 0.125732V11.468H148.122V14.8134H143.853V29.1187H139.839V0.125732H143.853ZM137.863 4.45874V7.7085H120.818V4.45874H127.381V0.571777H131.459V4.45874H137.863ZM129.42 9.33337C133.658 9.33337 136.812 12.2008 136.812 16.2471C136.812 20.2933 133.658 23.1608 129.42 23.1608C125.151 23.1608 121.997 20.2933 121.997 16.2471C121.997 12.2008 125.151 9.33337 129.42 9.33337ZM129.42 12.615C127.381 12.6469 125.884 14.0168 125.884 16.2471C125.884 18.5092 127.381 19.8473 129.42 19.8154C131.459 19.8473 132.925 18.5092 132.925 16.2471C132.925 14.0168 131.459 12.6469 129.42 12.615Z" fill="black"/>
<path d="M119.289 15.6736V18.9233H92.7491V15.6736H103.996V13.5708H96.0626V5.60571H111.993V3.82153H95.9989V0.667358H116.071V8.53687H100.109V10.4485H116.613V13.5708H108.042V15.6736H119.289ZM116.23 20.5801V28.9912H112.12V23.7661H95.7122V20.5801H116.23Z" fill="black"/>
<path d="M91.0924 13.3796V16.6931H64.5846V13.3796H91.0924ZM88.0657 8.12268V11.3406H67.8025V0.890381H87.9064V4.172H71.8488V8.12268H88.0657ZM77.7748 18.4454C84.0513 18.4454 87.8427 20.3571 87.8745 23.7661C87.8427 27.207 84.0513 29.1187 77.7748 29.1187C71.4346 29.1187 67.6113 27.207 67.6113 23.7661C67.6113 20.3571 71.4346 18.4454 77.7748 18.4454ZM77.7748 21.5359C73.7604 21.5359 71.7213 22.3005 71.7532 23.7661C71.7213 25.2954 73.7604 26.0282 77.7748 26.0282C81.6936 26.0282 83.7645 25.2954 83.7964 23.7661C83.7645 22.3005 81.6936 21.5359 77.7748 21.5359Z" fill="black"/>
<path d="M55.4088 22.428V25.7415H28.8691V22.428H40.0521V17.0754H31.6729V1.97363H35.751V6.46594H48.3995V1.97363H52.4458V17.0754H44.0984V22.428H55.4088ZM35.751 13.8257H48.3995V9.7157H35.751V13.8257Z" fill="black"/>
<path d="M25.1096 0.125732V17.3303H21.0634V10.4803H16.5392V7.19873H21.0634V0.125732H25.1096ZM15.201 17.9675C21.382 17.9994 25.1733 20.0385 25.2052 23.575C25.1733 27.0796 21.382 29.1505 15.201 29.1505C9.02014 29.1505 5.22876 27.0796 5.22876 23.575C5.22876 20.0385 9.02014 17.9994 15.201 17.9675ZM15.201 21.0898C11.3459 21.0898 9.27502 21.8864 9.27502 23.575C9.27502 25.2317 11.3459 26.0601 15.201 26.0601C19.0562 26.0601 21.1589 25.2317 21.1589 23.575C21.1589 21.8864 19.0562 21.0898 15.201 21.0898ZM17.3994 1.87805V5.12781H11.6327C11.7283 8.505 13.7673 11.9141 18.2915 13.4115L16.2843 16.5975C13.0823 15.5621 10.884 13.4593 9.62549 10.8308C8.33514 13.7938 6.02527 16.1833 2.58435 17.3622L0.481567 14.1443C5.24469 12.5513 7.37933 8.75989 7.49084 5.12781H1.6604V1.87805H17.3994Z" fill="black"/>
</svg>
