<svg width="537" height="58" viewBox="0 0 537 58" fill="none" xmlns="http://www.w3.org/2000/svg">
<path d="M0.92 39.208V32.36H24.856V27.304H5.08V0.551998H13.784V7.08H45.016V0.551998H53.72V27.304H33.944V32.36H57.88V39.208H0.92ZM5.08 57.32V41.64H13.784V50.152H54.36V57.32H5.08ZM13.784 20.52H45.016V13.864H13.784V20.52ZM67.1725 57.32V37.48H75.8765V50.152H115.813V57.32H67.1725ZM105.829 42.28V0.423996H114.533V42.28H105.829ZM81.7005 32.424H79.7805C68.3885 32.424 62.0525 25.96 62.0525 16.424C62.0525 6.888 68.3885 0.423996 79.7805 0.423996H81.7005C93.0925 0.423996 99.4285 6.888 99.4285 16.424C99.4285 25.96 93.0925 32.424 81.7005 32.424ZM79.2685 25.512H82.2125C87.3325 25.512 90.7245 22.056 90.7245 16.424C90.7245 10.792 87.3325 7.336 82.2125 7.336H79.2685C74.1485 7.336 70.7565 10.792 70.7565 16.424C70.7565 22.056 74.1485 25.512 79.2685 25.512ZM161.713 57.576H141.617C132.401 57.576 126.705 52.968 126.705 45.608C126.705 38.248 132.401 33.64 141.617 33.64H161.713C170.929 33.64 176.625 38.248 176.625 45.608C176.625 52.968 170.929 57.576 161.713 57.576ZM123.185 31.08V24.104C131.249 22.824 136.945 17.128 136.945 10.536V7.976H123.505V1.064H158.705V7.976H145.969V10.536C145.969 17 151.025 21.928 159.025 23.592V30.568C151.921 29.288 145.521 25.96 141.425 21.48C137.201 26.6 130.929 29.736 123.185 31.08ZM166.641 32.36V18.6H156.145V11.24H166.641V0.423996H175.345V32.36H166.641ZM142.193 50.664H161.137C165.297 50.664 167.921 48.68 167.921 45.608C167.921 42.536 165.297 40.552 161.137 40.552H142.193C138.033 40.552 135.409 42.536 135.409 45.608C135.409 48.68 138.033 50.664 142.193 50.664ZM183.358 55.72V48.36H207.294V38.184H188.158V1.576H196.862V12.456H226.814V1.576H235.518V38.184H216.382V48.36H240.318V55.72H183.358ZM196.862 30.888H226.814V19.752H196.862V30.888ZM244.81 53.224V45.352C258.762 42.28 268.938 27.56 268.938 9.448H245.13V2.024H277.77V7.912C277.77 31.144 264.074 50.024 244.81 53.224ZM286.346 57.576V0.423996H295.05V20.84H302.73V28.648H295.05V57.576H286.346ZM322.568 28.584V1.064H357.128V28.584H322.568ZM324.488 57.96V50.984C335.176 50.664 343.368 45.288 344.264 40.552H325.128V33.64H372.488V40.552H353.352C354.184 45.288 362.44 50.664 373.128 50.984V57.96C363.208 57.448 354.44 54.376 348.808 48.936C343.176 54.376 334.408 57.448 324.488 57.96ZM363.784 31.4V0.423996H372.488V10.6H380.168V18.408H372.488V31.4H363.784ZM331.272 21.672H348.424V7.976H331.272V21.672ZM384.98 52.584V2.024H393.684V45.288H420.756V52.584H384.98ZM424.596 57.576V0.423996H433.3V21.48H440.98V29.288H433.3V57.576H424.596ZM443.233 55.4V48.04H454.945V34.408C449.697 31.4 446.753 26.088 446.753 19.24C446.753 8.36 454.177 1.384 466.465 1.384H476.961C489.185 1.384 496.673 8.36 496.673 19.24C496.673 25.96 493.793 31.208 488.737 34.216V48.04H500.193V55.4H443.233ZM466.145 29.8H477.281C483.809 29.8 487.969 25.448 487.969 19.24C487.969 13.032 483.809 8.68 477.281 8.68H466.145C459.617 8.68 455.457 13.032 455.457 19.24C455.457 25.448 459.617 29.8 466.145 29.8ZM464.033 48.04H479.649V36.968C478.753 37.032 477.857 37.096 476.961 37.096H466.465C465.633 37.096 464.801 37.096 464.033 37.032V48.04ZM516.397 38.504V33.64C516.397 24.808 527.981 22.952 527.981 15.784C527.981 12.584 525.997 9.064 521.005 9.064C516.013 9.064 514.029 12.584 514.029 15.784V16.104H505.325V15.784C505.325 8.104 512.045 2.28 521.005 2.28C529.773 2.28 536.685 7.912 536.685 15.784C536.685 27.112 524.973 28.52 524.973 34.92V38.504H516.397ZM514.925 50.152C514.925 46.824 517.357 44.392 520.685 44.392C524.013 44.392 526.445 46.824 526.445 50.152C526.445 53.48 524.013 55.912 520.685 55.912C517.357 55.912 514.925 53.48 514.925 50.152Z" fill="white"/>
</svg>
