<svg width="190" height="251" viewBox="0 0 190 251" fill="none" xmlns="http://www.w3.org/2000/svg">
<path d="M77.8692 64.8748L80.24 69.3671L79.3181 83.1079L83.1379 68.9709L79.1861 58.9291L67.5938 56.0225L59.8223 61.4395L64.038 61.9681L66.5409 64.4786L75.2343 65.7995L77.8692 64.8748Z" fill="white"/>
<path d="M110.8 58.9291L106.849 68.9709L110.669 83.1079L109.748 69.3671L112.118 64.8748L114.753 65.7995L125.949 61.9681L130.165 61.4395L122.393 56.0225L110.8 58.9291Z" fill="white"/>
<path d="M96.117 111.946L100.833 99.3339L106.228 97.0556C107.821 96.3831 108.887 93.839 108.644 92.1219C108.313 89.7744 94.995 92.8018 94.995 92.8018C94.995 92.8018 82.4923 90.1821 81.6803 91.9044C80.7427 93.8947 81.6699 96.1719 83.5986 96.9863L89.1564 99.3339L93.8719 111.946L79.8553 118.141C76.8946 117.871 74.0932 119.529 72.8978 122.26L72.8779 122.306L94.995 115.609L117.112 122.306L117.092 122.26C115.897 119.53 113.095 117.871 110.135 118.141L96.1181 111.946H96.117Z" fill="white"/>
<path d="M186.28 73.3309L166.916 44.3949L185.885 60.25L168.892 29.3321L144.39 15.8551L161.778 17.837L134.116 1.18955L112.776 0L94.9935 9.95673L77.2106 0L55.8709 1.18955L28.2086 17.838L45.5965 15.8561L21.095 29.3332L4.102 60.25L23.0709 44.3949L3.70703 73.3309L6.07788 112.176L17.9332 96.3212L10.4246 123.275L24.6507 148.644L32.5542 122.086L30.9733 151.814L44.0146 170.841L45.5955 139.527L55.4749 170.841L76.8146 185.507L74.8387 167.85L94.9925 189.676L115.146 167.85L113.17 185.507L134.51 170.841L144.389 139.527L145.97 170.841L159.012 151.814L157.431 122.086L165.334 148.644L179.56 123.275L172.052 96.3212L183.907 112.176L186.278 73.3309H186.28ZM129.506 102.002C129.506 102.002 113.962 92.225 115.016 93.0173C116.07 93.8097 125.818 108.609 125.818 108.609L123.447 127.899L115.543 141.111L102.107 149.039L106.323 138.205L94.9945 145.306L83.6662 138.205L87.882 149.039L74.4458 141.111L66.5423 127.899L64.1715 108.609C64.1715 108.609 73.9189 93.8107 74.9728 93.0173C76.0267 92.225 60.4827 102.002 60.4827 102.002L50.7353 84.5612L52.5791 54.1719L65.7524 30.3893L94.9956 42.992L124.239 30.3893L137.412 54.1719L139.256 84.5612L129.509 102.002H129.506Z" fill="white"/>
<path d="M45.5967 139.527L55.4761 170.841L63.4582 176.327L45.5967 139.527Z" fill="white"/>
<path d="M32.5555 122.086L30.9746 151.814L36.6309 160.066L32.5555 122.086Z" fill="white"/>
<path d="M10.4238 123.275L17.9324 96.3213L15.8109 132.881L10.4238 123.275Z" fill="white"/>
<path d="M3.70703 73.3308L4.3042 83.1078L23.0709 44.3948L3.70703 73.3308Z" fill="white"/>
<path d="M4.10254 60.2501L21.0955 29.3323L12.599 53.1486L4.10254 60.2501Z" fill="white"/>
<path d="M134.512 170.841L123.408 178.472L144.392 139.527L134.512 170.841Z" fill="white"/>
<path d="M154.823 157.927L159.013 151.814L157.433 122.086L154.823 157.927Z" fill="white"/>
<path d="M173.463 134.152L179.562 123.275L172.054 96.3213L173.463 134.152Z" fill="white"/>
<path d="M185.523 85.7265L186.28 73.3308L166.916 44.3948L185.523 85.7265Z" fill="white"/>
<path d="M185.886 60.2501L168.893 29.3323L177.389 53.1486L185.886 60.2501Z" fill="white"/>
<path d="M134.116 1.18945L151.335 16.6463L161.78 17.8369L134.116 1.18945Z" fill="white"/>
<path d="M28.209 17.8369L55.8713 1.18945L36.6311 16.8775L28.209 17.8369Z" fill="white"/>
<path d="M74.8398 167.849L88.6239 182.778L94.9936 189.676L99.7395 184.536L74.8398 167.849Z" fill="white"/>
<path d="M115.148 167.849L90.6562 184.979L94.9935 189.676L115.148 167.849Z" fill="white"/>
<path d="M53.7227 238.225H56.3806V247.921H62.4046V250.345H53.7217V238.226L53.7227 238.225Z" fill="white"/>
<path d="M64.5283 238.225H67.1862V250.344H64.5283V238.225Z" fill="white"/>
<path d="M70.207 238.225H72.8649V243.523L77.7323 238.225H80.9947L76.0582 243.367L81.2022 250.344H78.0089L74.2636 245.185L72.8649 246.639V250.344H70.207V238.225Z" fill="white"/>
<path d="M82.8087 238.225H91.9222V240.597H85.4488V243.056H91.1449V245.427H85.4488V247.972H92.0081V250.344H82.8076V238.225H82.8087Z" fill="white"/>
<path d="M94.3731 238.225H97.031V247.921H103.055V250.345H94.3721V238.226L94.3731 238.225Z" fill="white"/>
<path d="M105.179 238.225H107.837V250.344H105.179V238.225Z" fill="white"/>
<path d="M110.322 244.319V244.284C110.322 240.838 113.033 238.017 116.761 238.017C120.49 238.017 123.165 240.805 123.165 244.249V244.284C123.165 247.73 120.455 250.551 116.727 250.551C112.998 250.551 110.322 247.763 110.322 244.319ZM120.386 244.319V244.284C120.386 242.207 118.867 240.475 116.727 240.475C114.586 240.475 113.102 242.172 113.102 244.249V244.284C113.102 246.362 114.621 248.093 116.761 248.093C118.902 248.093 120.386 246.396 120.386 244.319Z" fill="white"/>
<path d="M125.529 238.225H127.981L133.642 245.687V238.225H136.266V250.344H134.005L128.154 242.639V250.344H125.53V238.225H125.529Z" fill="white"/>
<path d="M24.007 198.571V205.393L13.5305 207.347L13.1617 209.206H19.279L17.521 216.218L11.5934 217.591L11.035 220.718H11.1188L21.785 218.954V226.759L0 228.322L7.31788 198.571H24.007Z" fill="white"/>
<path d="M31.2706 197.049H40.115L36.8085 218.647L43.6843 198.391L52.0865 197.948L45.2956 225.819L23.584 227.879L31.2706 197.05V197.049Z" fill="white"/>
<path d="M65.2278 198.718L59.7423 221.086L68.9449 219.882V227.613L46.1699 229.577L56.4883 199.182L65.2278 198.717V198.718Z" fill="white"/>
<path d="M89.0564 198.423H97.7425L90.498 228.775H70.4814L73.2085 209.248H82.716L81.1686 219.249H82.0738L89.0543 198.423H89.0564Z" fill="white"/>
<path d="M110.862 199.205L103.807 227.974L92.457 228.861L102.46 199.648L110.862 199.205Z" fill="white"/>
<path d="M128.593 197.049H137.437L134.131 218.647L141.007 198.391L149.409 197.948L142.618 225.819L120.906 227.879L128.593 197.05V197.049Z" fill="white"/>
<path d="M162.655 198.391L164.971 209.238H165.066L168.551 198.93L176.943 198.571L169.888 227.434L158.632 228.332L157.463 219.808H157.379L155.588 227.339L144.153 228.236L154.335 198.929L162.654 198.39L162.655 198.391Z" fill="white"/>
<path d="M189.988 199.205L182.933 227.974L171.583 228.861L181.586 199.648L189.988 199.205Z" fill="white"/>
<path d="M43.8602 246.534C45.099 246.534 46.1033 245.527 46.1033 244.284C46.1033 243.041 45.099 242.034 43.8602 242.034C42.6214 242.034 41.6172 243.041 41.6172 244.284C41.6172 245.527 42.6214 246.534 43.8602 246.534Z" fill="white"/>
<path d="M146.128 246.534C147.367 246.534 148.371 245.527 148.371 244.284C148.371 243.041 147.367 242.034 146.128 242.034C144.889 242.034 143.885 243.041 143.885 244.284C143.885 245.527 144.889 246.534 146.128 246.534Z" fill="white"/>
</svg>
